<svg id="svg" version="1.1" xmlns="http://www.w3.org/2000/svg" xmlns:xlink="http://www.w3.org/1999/xlink" width="400" height="104.375" viewBox="0, 0, 400,104.375"><g id="svgg"><path id="path0" d="M196.741 0.205 C 196.931 0.311,197.089 0.311,197.195 0.205 C 197.302 0.098,197.200 0.042,196.904 0.042 C 196.520 0.042,196.495 0.067,196.741 0.205 M197.500 0.064 C 197.500 0.205,198.348 0.279,198.430 0.144 C 198.480 0.065,198.290 0.000,198.010 0.000 C 197.729 0.000,197.500 0.029,197.500 0.064 M202.667 0.200 C 202.667 0.273,202.929 0.333,203.250 0.333 C 203.571 0.333,203.833 0.304,203.833 0.268 C 203.833 0.232,203.571 0.172,203.250 0.135 C 202.929 0.098,202.667 0.127,202.667 0.200 M207.667 0.167 C 207.297 0.285,207.322 0.302,207.885 0.317 C 208.269 0.327,208.479 0.268,208.417 0.167 C 208.301 -0.021,208.252 -0.021,207.667 0.167 M212.566 0.139 C 212.647 0.270,213.667 0.201,213.667 0.064 C 213.667 0.029,213.400 0.000,213.073 0.000 C 212.747 0.000,212.519 0.062,212.566 0.139 M213.833 0.129 C 213.833 0.202,214.058 0.280,214.333 0.301 C 214.608 0.321,214.833 0.278,214.833 0.205 C 214.833 0.131,214.608 0.054,214.333 0.033 C 214.058 0.012,213.833 0.055,213.833 0.129 M192.000 0.323 C 192.000 0.409,192.150 0.468,192.333 0.454 C 192.517 0.440,192.667 0.370,192.667 0.298 C 192.667 0.226,192.517 0.167,192.333 0.167 C 192.150 0.167,192.000 0.237,192.000 0.323 M192.833 0.332 C 192.833 0.429,193.123 0.461,193.534 0.409 C 194.504 0.287,194.543 0.167,193.611 0.167 C 193.183 0.167,192.833 0.241,192.833 0.332 M195.223 0.348 C 195.574 0.432,195.974 0.438,196.112 0.361 C 196.273 0.270,196.046 0.216,195.473 0.208 C 194.589 0.196,194.587 0.196,195.223 0.348 M216.717 0.272 C 216.863 0.418,219.497 0.472,219.585 0.331 C 219.620 0.274,218.964 0.211,218.125 0.192 C 217.287 0.173,216.653 0.209,216.717 0.272 M188.250 0.506 C 188.002 0.618,188.097 0.644,188.623 0.608 C 189.011 0.581,189.380 0.509,189.442 0.447 C 189.607 0.282,188.642 0.330,188.250 0.506 M189.667 0.500 C 189.667 0.709,189.844 0.709,190.167 0.500 C 190.369 0.369,190.345 0.338,190.042 0.336 C 189.835 0.334,189.667 0.408,189.667 0.500 M190.500 0.458 C 190.500 0.527,190.687 0.594,190.916 0.607 C 191.144 0.620,191.290 0.564,191.239 0.482 C 191.128 0.302,190.500 0.282,190.500 0.458 M221.667 0.480 C 221.667 0.561,221.948 0.635,222.292 0.642 C 223.551 0.671,223.825 0.711,223.737 0.854 C 223.688 0.934,223.720 1.000,223.810 1.000 C 223.899 1.000,224.016 0.906,224.069 0.792 C 224.147 0.625,224.186 0.625,224.264 0.792 C 224.373 1.025,225.000 1.080,225.000 0.856 C 225.000 0.777,225.188 0.749,225.417 0.793 C 225.646 0.836,225.833 0.801,225.833 0.714 C 225.833 0.627,225.608 0.556,225.333 0.556 C 225.058 0.556,224.833 0.627,224.833 0.715 C 224.833 0.802,224.728 0.787,224.600 0.681 C 224.472 0.574,224.116 0.497,223.809 0.508 C 223.501 0.519,222.894 0.484,222.458 0.430 C 222.023 0.375,221.667 0.398,221.667 0.480 M185.000 0.685 C 184.679 0.756,184.019 0.831,183.534 0.853 C 183.048 0.874,182.614 0.950,182.570 1.022 C 182.526 1.093,182.360 1.107,182.203 1.052 C 181.989 0.976,181.962 1.001,182.098 1.148 C 182.226 1.288,182.405 1.298,182.711 1.181 C 182.949 1.091,183.523 1.043,183.987 1.075 C 184.452 1.106,184.793 1.070,184.746 0.993 C 184.622 0.793,185.669 0.720,186.214 0.891 C 186.545 0.995,186.831 0.961,187.214 0.772 L 187.750 0.508 187.198 0.504 C 186.801 0.501,186.682 0.558,186.772 0.708 C 186.868 0.869,186.842 0.873,186.657 0.727 C 186.384 0.511,185.847 0.497,185.000 0.685 M180.667 1.188 C 180.667 1.340,181.616 1.273,181.781 1.108 C 181.849 1.040,181.626 1.004,181.285 1.026 C 180.945 1.049,180.667 1.122,180.667 1.188 M229.500 1.151 C 229.500 1.234,229.869 1.292,230.320 1.280 C 230.770 1.267,231.103 1.199,231.060 1.128 C 230.947 0.947,229.500 0.968,229.500 1.151 M177.893 1.372 C 177.842 1.455,177.845 1.567,177.900 1.622 C 177.955 1.677,178.000 1.648,178.000 1.556 C 178.000 1.465,178.300 1.396,178.667 1.404 C 179.033 1.411,179.333 1.361,179.333 1.293 C 179.333 1.117,178.005 1.190,177.893 1.372 M231.617 1.351 C 231.749 1.482,231.888 1.484,232.109 1.356 C 232.379 1.199,232.356 1.176,231.925 1.172 C 231.566 1.168,231.483 1.216,231.617 1.351 M232.500 1.294 C 232.500 1.373,232.854 1.456,233.287 1.478 C 233.720 1.501,234.039 1.484,233.996 1.440 C 233.840 1.285,232.500 1.154,232.500 1.294 M176.227 1.521 C 175.980 1.618,176.018 1.650,176.417 1.676 C 176.692 1.694,177.073 1.726,177.264 1.747 C 177.466 1.769,177.611 1.689,177.611 1.556 C 177.611 1.312,176.810 1.292,176.227 1.521 M234.009 1.630 C 233.794 1.861,233.813 1.877,234.176 1.780 C 234.400 1.720,234.690 1.670,234.819 1.669 C 235.132 1.666,234.961 1.505,234.564 1.430 C 234.391 1.397,234.142 1.487,234.009 1.630 M172.951 2.017 C 173.082 2.149,173.222 2.151,173.442 2.022 C 173.712 1.866,173.689 1.843,173.258 1.838 C 172.900 1.835,172.816 1.883,172.951 2.017 M238.000 2.012 C 238.000 2.086,238.131 2.146,238.292 2.145 C 238.452 2.145,238.784 2.176,239.029 2.215 C 239.275 2.253,239.575 2.217,239.696 2.135 C 239.847 2.033,239.759 1.993,239.417 2.010 C 239.142 2.024,238.879 2.018,238.833 1.996 C 238.595 1.885,238.000 1.897,238.000 2.012 M170.708 2.120 C 170.502 2.159,170.332 2.278,170.331 2.387 C 170.329 2.524,170.288 2.519,170.193 2.370 C 170.092 2.211,169.953 2.200,169.654 2.327 C 169.322 2.467,169.309 2.493,169.583 2.473 C 169.767 2.460,170.062 2.511,170.240 2.588 C 170.450 2.678,170.586 2.658,170.629 2.530 C 170.665 2.422,170.909 2.333,171.171 2.333 C 171.433 2.333,171.684 2.274,171.728 2.202 C 171.818 2.056,171.286 2.013,170.708 2.120 M240.169 2.335 C 240.296 2.413,240.469 2.436,240.552 2.384 C 240.636 2.333,240.758 2.378,240.823 2.484 C 240.907 2.619,241.064 2.629,241.346 2.516 C 241.836 2.320,241.802 2.304,240.760 2.241 C 240.251 2.210,240.025 2.246,240.169 2.335 M243.852 2.736 C 243.967 2.856,245.570 3.151,246.566 3.235 C 247.478 3.312,246.930 3.057,245.917 2.933 C 245.458 2.877,244.783 2.785,244.417 2.730 C 244.050 2.674,243.796 2.677,243.852 2.736 M165.278 2.944 C 165.056 3.166,165.173 3.369,165.409 3.173 C 165.543 3.062,165.715 3.010,165.792 3.058 C 165.869 3.106,166.042 3.076,166.175 2.992 C 166.352 2.879,166.280 2.838,165.903 2.836 C 165.620 2.834,165.339 2.883,165.278 2.944 M164.060 3.204 C 164.016 3.275,164.041 3.334,164.115 3.336 C 164.189 3.337,164.406 3.380,164.597 3.431 C 164.840 3.496,164.944 3.447,164.944 3.266 C 164.944 2.999,164.218 2.948,164.060 3.204 M249.167 3.633 C 249.167 3.707,249.349 3.767,249.573 3.767 C 249.796 3.767,249.941 3.707,249.896 3.633 C 249.851 3.560,249.668 3.500,249.490 3.500 C 249.312 3.500,249.167 3.560,249.167 3.633 M160.177 3.822 C 160.012 3.928,160.151 3.966,160.622 3.946 C 160.998 3.929,161.347 3.875,161.397 3.825 C 161.557 3.665,160.426 3.663,160.177 3.822 M250.167 3.781 C 250.167 3.865,250.335 3.943,250.542 3.954 C 251.005 3.980,251.365 4.062,251.583 4.192 C 251.675 4.247,251.900 4.237,252.083 4.170 L 252.417 4.049 252.083 3.951 C 251.376 3.742,250.167 3.635,250.167 3.781 M158.905 4.020 C 158.819 4.157,159.671 4.385,159.797 4.258 C 159.848 4.208,159.783 4.166,159.653 4.164 C 159.458 4.162,159.461 4.133,159.667 3.999 C 159.857 3.875,159.804 3.845,159.445 3.872 C 159.186 3.892,158.942 3.958,158.905 4.020 M253.992 4.492 C 254.125 4.576,254.294 4.608,254.367 4.563 C 254.440 4.517,254.500 4.555,254.500 4.646 C 254.500 4.737,254.683 4.778,254.906 4.738 C 255.129 4.697,255.359 4.741,255.418 4.835 C 255.476 4.929,255.588 4.965,255.667 4.917 C 255.746 4.868,255.855 4.901,255.910 4.990 C 256.030 5.184,256.500 5.034,256.500 4.802 C 256.500 4.712,256.409 4.669,256.298 4.706 C 256.187 4.743,255.681 4.675,255.173 4.556 C 254.037 4.288,253.636 4.266,253.992 4.492 M155.755 4.658 C 155.703 4.742,155.850 4.791,156.081 4.766 C 156.648 4.706,156.743 4.579,156.250 4.538 C 156.030 4.520,155.807 4.574,155.755 4.658 M154.667 4.841 C 154.482 4.966,154.548 4.983,154.917 4.908 C 155.298 4.831,155.357 4.849,155.167 4.984 C 154.951 5.137,154.957 5.162,155.208 5.164 C 155.369 5.166,155.500 5.054,155.500 4.917 C 155.500 4.632,155.038 4.590,154.667 4.841 M256.722 5.087 C 256.722 5.200,256.857 5.252,257.029 5.207 C 257.197 5.163,257.459 5.230,257.611 5.355 C 257.847 5.550,257.876 5.548,257.806 5.338 C 257.704 5.027,256.722 4.800,256.722 5.087 M153.410 5.178 C 153.349 5.276,153.345 5.401,153.400 5.456 C 153.455 5.511,153.500 5.470,153.500 5.364 C 153.500 5.250,153.700 5.197,153.996 5.231 C 154.269 5.263,154.452 5.224,154.403 5.144 C 154.277 4.940,153.541 4.965,153.410 5.178 M151.599 5.475 C 151.551 5.553,151.734 5.623,152.006 5.630 C 152.278 5.638,152.500 5.574,152.500 5.489 C 152.500 5.295,151.718 5.282,151.599 5.475 M258.741 5.514 C 258.661 5.644,258.684 5.675,258.806 5.600 C 258.911 5.536,259.247 5.601,259.553 5.747 C 259.942 5.932,260.229 5.966,260.510 5.862 C 260.884 5.724,260.889 5.707,260.581 5.619 C 259.699 5.366,258.862 5.319,258.741 5.514 M150.750 5.653 L 150.250 5.766 150.700 5.858 C 150.994 5.919,151.180 5.872,151.236 5.725 C 151.284 5.601,151.306 5.509,151.286 5.520 C 151.266 5.531,151.025 5.590,150.750 5.653 M148.667 6.194 C 148.667 6.263,148.885 6.304,149.152 6.285 C 149.419 6.266,149.601 6.212,149.555 6.167 C 149.422 6.033,148.667 6.056,148.667 6.194 M262.000 6.131 C 262.000 6.203,262.150 6.274,262.333 6.288 C 262.517 6.301,262.667 6.242,262.667 6.156 C 262.667 6.070,262.517 6.000,262.333 6.000 C 262.150 6.000,262.000 6.059,262.000 6.131 M147.200 6.342 C 146.465 6.501,146.395 6.604,146.929 6.738 C 147.214 6.810,147.470 6.765,147.645 6.613 C 147.794 6.483,148.004 6.409,148.110 6.447 C 148.216 6.486,148.346 6.448,148.398 6.363 C 148.510 6.182,147.978 6.172,147.200 6.342 M262.833 6.313 C 262.833 6.393,263.019 6.458,263.247 6.458 C 263.474 6.458,263.620 6.393,263.570 6.313 C 263.521 6.232,263.335 6.167,263.157 6.167 C 262.979 6.167,262.833 6.232,262.833 6.313 M265.610 6.957 C 265.512 7.115,265.561 7.130,266.417 7.201 C 266.692 7.224,266.956 7.297,267.004 7.363 C 267.053 7.428,267.203 7.413,267.338 7.327 C 267.553 7.191,267.553 7.170,267.333 7.156 C 267.196 7.148,266.971 7.111,266.833 7.074 C 266.001 6.849,265.695 6.819,265.610 6.957 M144.109 7.249 C 143.921 7.436,143.842 7.446,143.786 7.290 C 143.746 7.176,143.651 7.141,143.576 7.211 C 143.500 7.281,143.526 7.426,143.632 7.532 C 143.779 7.679,143.905 7.653,144.157 7.426 C 144.340 7.260,144.606 7.172,144.752 7.228 C 144.906 7.287,144.974 7.260,144.915 7.165 C 144.767 6.924,144.394 6.963,144.109 7.249 M142.875 7.451 C 142.669 7.491,142.500 7.597,142.500 7.688 C 142.500 7.779,142.426 7.807,142.336 7.752 C 142.128 7.623,141.000 7.829,141.000 7.996 C 141.000 8.121,141.355 8.106,142.194 7.945 C 142.663 7.856,143.333 7.541,143.333 7.411 C 143.333 7.368,143.315 7.344,143.292 7.356 C 143.269 7.369,143.081 7.411,142.875 7.451 M269.167 7.795 C 269.167 7.869,269.406 7.947,269.700 7.970 C 270.317 8.017,270.284 7.928,269.625 7.770 C 269.373 7.710,269.167 7.721,269.167 7.795 M270.333 8.028 C 270.333 8.104,270.488 8.167,270.677 8.167 C 270.865 8.167,270.974 8.241,270.918 8.331 C 270.859 8.426,270.926 8.454,271.075 8.397 C 271.217 8.342,271.333 8.368,271.333 8.454 C 271.333 8.541,271.427 8.618,271.542 8.626 C 271.656 8.633,271.906 8.677,272.098 8.722 C 273.085 8.954,272.625 8.534,271.567 8.237 C 270.889 8.046,270.333 7.952,270.333 8.028 M140.000 8.149 C 140.000 8.343,140.487 8.528,140.682 8.407 C 140.765 8.356,140.827 8.224,140.820 8.115 C 140.811 7.972,140.784 7.975,140.723 8.125 C 140.677 8.240,140.566 8.333,140.476 8.333 C 140.387 8.333,140.360 8.258,140.417 8.167 C 140.473 8.075,140.403 8.000,140.260 8.000 C 140.117 8.000,140.000 8.067,140.000 8.149 M137.708 8.777 C 137.594 8.823,137.500 8.932,137.500 9.020 C 137.500 9.113,137.639 9.104,137.837 8.998 C 138.022 8.899,138.259 8.870,138.363 8.935 C 138.478 9.006,138.505 8.977,138.433 8.859 C 138.309 8.660,138.067 8.632,137.708 8.777 M273.500 9.004 C 273.500 9.104,273.575 9.140,273.667 9.083 C 273.758 9.027,273.833 9.053,273.833 9.141 C 273.833 9.230,273.986 9.262,274.173 9.213 C 274.586 9.105,274.466 8.951,273.910 8.877 C 273.685 8.847,273.500 8.904,273.500 9.004 M135.333 9.458 C 135.333 9.527,135.108 9.598,134.833 9.616 C 133.979 9.671,133.822 9.717,133.881 9.892 C 133.912 9.986,134.037 10.096,134.159 10.136 C 134.290 10.180,134.333 10.134,134.263 10.022 C 134.145 9.831,134.215 9.807,135.050 9.749 C 135.580 9.712,136.096 9.333,135.617 9.333 C 135.461 9.333,135.333 9.390,135.333 9.458 M275.609 9.459 C 275.562 9.535,275.762 9.615,276.053 9.636 C 276.345 9.657,276.664 9.781,276.763 9.912 C 276.875 10.062,277.087 10.113,277.330 10.049 C 277.599 9.979,277.682 10.007,277.601 10.139 C 277.523 10.264,277.576 10.294,277.755 10.225 C 278.111 10.088,277.832 9.899,276.917 9.657 C 276.550 9.560,276.125 9.444,275.972 9.400 C 275.820 9.356,275.656 9.382,275.609 9.459 M132.500 10.328 C 132.500 10.417,132.387 10.446,132.250 10.394 C 132.112 10.341,132.000 10.374,132.000 10.467 C 132.000 10.686,132.445 10.621,132.702 10.365 C 132.855 10.212,132.855 10.167,132.700 10.167 C 132.590 10.167,132.500 10.239,132.500 10.328 M279.417 10.629 C 279.692 10.806,280.014 10.915,280.132 10.871 C 280.377 10.782,280.269 10.618,279.932 10.569 C 279.809 10.550,279.530 10.484,279.312 10.422 C 278.980 10.326,278.997 10.360,279.417 10.629 M131.101 10.639 C 131.047 10.725,130.738 10.845,130.414 10.906 C 130.089 10.967,129.868 11.088,129.922 11.176 C 129.983 11.274,130.143 11.268,130.347 11.159 C 130.527 11.063,130.747 11.030,130.837 11.085 C 130.927 11.141,131.000 11.108,131.000 11.012 C 131.000 10.916,131.131 10.855,131.292 10.877 C 131.452 10.899,131.606 10.842,131.634 10.750 C 131.700 10.533,131.227 10.434,131.101 10.639 M128.875 11.277 C 128.760 11.323,128.667 11.419,128.667 11.491 C 128.667 11.660,129.477 11.505,129.596 11.313 C 129.691 11.158,129.227 11.135,128.875 11.277 M282.026 11.474 C 282.550 11.899,282.667 11.919,282.667 11.583 C 282.667 11.446,282.560 11.333,282.430 11.333 C 282.300 11.333,282.057 11.284,281.889 11.224 C 281.696 11.155,281.747 11.247,282.026 11.474 M282.943 11.758 C 282.986 11.871,283.167 11.925,283.344 11.879 C 283.766 11.769,283.751 11.722,283.265 11.629 C 282.993 11.577,282.889 11.618,282.943 11.758 M126.451 12.036 C 125.834 12.199,125.696 12.497,126.177 12.627 C 126.378 12.682,126.379 12.666,126.187 12.531 C 125.970 12.380,127.163 12.039,127.554 12.140 C 127.630 12.159,127.644 12.098,127.586 12.004 C 127.463 11.805,127.305 11.809,126.451 12.036 M284.278 12.121 C 284.230 12.200,284.347 12.276,284.538 12.290 C 284.730 12.305,284.941 12.404,285.007 12.511 C 285.095 12.653,285.210 12.657,285.438 12.524 C 285.772 12.330,285.761 12.314,285.250 12.247 C 285.067 12.223,284.793 12.152,284.642 12.090 C 284.491 12.028,284.327 12.042,284.278 12.121 M285.979 12.724 C 286.103 12.874,286.269 12.956,286.349 12.907 C 286.611 12.745,287.869 13.206,287.631 13.377 C 287.483 13.484,287.515 13.499,287.737 13.427 C 287.920 13.367,288.115 13.413,288.192 13.536 C 288.293 13.695,288.329 13.698,288.331 13.547 C 288.332 13.435,288.446 13.387,288.583 13.440 C 288.721 13.492,288.833 13.496,288.833 13.448 C 288.833 13.400,288.290 13.198,287.625 12.999 C 285.607 12.395,285.722 12.415,285.979 12.724 M124.042 12.863 C 123.744 12.944,123.500 13.085,123.500 13.177 C 123.500 13.286,123.619 13.281,123.837 13.165 C 124.022 13.066,124.242 13.027,124.325 13.078 C 124.467 13.166,124.769 12.867,124.642 12.764 C 124.610 12.738,124.340 12.783,124.042 12.863 M122.667 13.333 C 122.529 13.414,122.196 13.527,121.925 13.585 C 121.557 13.663,121.493 13.726,121.670 13.835 C 121.807 13.920,121.984 13.916,122.093 13.825 C 122.196 13.740,122.318 13.707,122.364 13.752 C 122.409 13.798,122.583 13.685,122.749 13.501 C 123.075 13.140,123.057 13.104,122.667 13.333 M289.000 13.649 C 289.000 13.829,289.412 14.000,289.847 14.000 C 290.023 14.000,290.167 14.079,290.167 14.177 C 290.167 14.274,290.242 14.307,290.333 14.250 C 290.680 14.035,290.478 13.833,289.917 13.833 C 289.596 13.833,289.333 13.758,289.333 13.667 C 289.333 13.575,289.258 13.500,289.167 13.500 C 289.075 13.500,289.000 13.567,289.000 13.649 M120.667 13.982 C 120.667 14.094,120.597 14.143,120.512 14.090 C 120.426 14.038,120.314 14.063,120.262 14.146 C 120.211 14.230,120.274 14.339,120.404 14.389 C 120.634 14.477,120.927 14.038,120.754 13.865 C 120.706 13.817,120.667 13.870,120.667 13.982 M291.004 14.276 C 291.130 14.479,291.356 14.611,291.522 14.579 C 291.684 14.548,292.007 14.672,292.240 14.855 C 292.473 15.038,292.739 15.142,292.832 15.084 C 293.053 14.947,293.048 14.667,292.823 14.667 C 292.726 14.667,292.693 14.742,292.750 14.833 C 292.807 14.925,292.771 15.000,292.671 15.000 C 292.571 15.000,292.448 14.892,292.398 14.760 C 292.347 14.628,292.068 14.470,291.778 14.408 C 291.487 14.346,291.144 14.210,291.015 14.106 C 290.814 13.944,290.812 13.969,291.004 14.276 M119.445 14.444 C 119.384 14.505,119.165 14.574,118.959 14.597 C 118.384 14.661,117.667 14.972,117.667 15.157 C 117.667 15.248,117.559 15.281,117.427 15.231 C 117.295 15.180,117.062 15.209,116.909 15.295 C 116.655 15.436,116.655 15.460,116.898 15.553 C 117.046 15.610,117.167 15.576,117.167 15.477 C 117.167 15.378,117.274 15.339,117.404 15.389 C 117.535 15.439,117.736 15.367,117.850 15.229 C 117.984 15.069,118.203 15.015,118.460 15.079 C 118.717 15.144,118.823 15.118,118.754 15.007 C 118.691 14.904,118.821 14.833,119.073 14.833 C 119.308 14.833,119.500 14.764,119.500 14.679 C 119.500 14.594,119.631 14.490,119.792 14.448 C 120.025 14.387,120.031 14.368,119.819 14.353 C 119.674 14.342,119.506 14.383,119.445 14.444 M294.556 15.564 C 294.594 15.666,294.709 15.731,294.813 15.708 C 294.916 15.685,295.000 15.739,295.000 15.828 C 295.000 15.917,295.112 15.947,295.249 15.894 C 295.588 15.764,295.428 15.557,294.913 15.458 C 294.641 15.407,294.512 15.445,294.556 15.564 M115.618 15.703 C 115.502 15.779,115.646 15.820,115.958 15.799 C 116.256 15.779,116.500 15.708,116.500 15.642 C 116.500 15.487,115.883 15.531,115.618 15.703 M114.208 16.208 C 113.643 16.389,113.533 16.565,113.859 16.766 C 113.964 16.831,114.145 16.755,114.260 16.598 C 114.375 16.440,114.531 16.322,114.606 16.335 C 114.680 16.348,114.769 16.278,114.801 16.179 C 114.834 16.081,114.836 16.008,114.806 16.017 C 114.775 16.026,114.506 16.112,114.208 16.208 M298.041 16.808 C 298.567 17.074,299.104 17.379,299.234 17.487 C 299.406 17.630,299.501 17.632,299.585 17.497 C 299.727 17.267,299.770 17.296,298.667 16.886 C 297.136 16.317,297.044 16.306,298.041 16.808 M112.083 17.057 C 111.808 17.161,111.528 17.322,111.461 17.415 C 111.394 17.507,111.337 17.518,111.336 17.438 C 111.334 17.358,111.221 17.386,111.083 17.500 C 110.946 17.614,110.836 17.792,110.838 17.895 C 110.841 17.999,110.925 17.943,111.025 17.772 C 111.171 17.520,111.233 17.504,111.350 17.688 C 111.451 17.847,111.496 17.854,111.497 17.714 C 111.499 17.593,111.613 17.554,111.777 17.617 C 111.964 17.688,112.015 17.659,111.934 17.528 C 111.821 17.345,111.898 17.308,112.486 17.266 C 112.616 17.256,112.754 17.155,112.792 17.041 C 112.873 16.799,112.763 16.801,112.083 17.057 M110.465 17.757 C 110.415 17.807,110.159 17.887,109.895 17.934 C 109.632 17.981,109.267 18.113,109.083 18.228 C 108.900 18.343,108.375 18.573,107.917 18.740 C 106.908 19.108,106.650 19.309,107.231 19.275 C 107.469 19.261,107.695 19.166,107.735 19.063 C 107.803 18.886,108.781 18.619,109.034 18.709 C 109.099 18.731,109.249 18.622,109.368 18.466 C 109.486 18.310,109.804 18.154,110.074 18.120 C 110.343 18.086,110.593 17.970,110.629 17.862 C 110.698 17.656,110.617 17.605,110.465 17.757 M300.917 17.986 C 301.192 18.176,301.504 18.332,301.611 18.332 C 301.718 18.333,301.843 18.427,301.890 18.542 C 301.939 18.665,301.979 18.629,301.987 18.454 C 301.999 18.171,301.747 18.019,300.833 17.760 C 300.447 17.650,300.454 17.667,300.917 17.986 M302.633 18.697 C 302.752 18.818,302.921 18.926,303.008 18.938 C 303.095 18.949,303.204 18.977,303.250 19.000 C 303.383 19.067,303.646 19.123,303.927 19.146 C 304.069 19.157,304.150 19.226,304.105 19.299 C 304.060 19.371,304.174 19.442,304.357 19.456 C 304.631 19.477,304.655 19.437,304.492 19.241 C 304.382 19.108,304.167 19.000,304.013 19.000 C 303.859 19.000,303.662 18.935,303.575 18.855 C 303.289 18.593,302.381 18.440,302.633 18.697 M305.042 19.615 C 305.202 19.657,305.333 19.758,305.333 19.840 C 305.333 19.922,305.458 19.942,305.611 19.883 C 305.785 19.816,305.847 19.843,305.778 19.954 C 305.718 20.052,305.785 20.176,305.926 20.231 C 306.074 20.287,306.140 20.259,306.082 20.165 C 306.026 20.074,306.056 20.000,306.149 20.000 C 306.241 20.000,306.386 20.123,306.470 20.273 C 306.562 20.438,306.706 20.495,306.831 20.418 C 307.084 20.262,305.588 19.494,305.083 19.521 C 304.803 19.536,304.796 19.551,305.042 19.615 M104.470 20.208 C 104.349 20.323,104.144 20.417,104.014 20.417 C 103.884 20.417,103.741 20.529,103.695 20.667 C 103.624 20.881,103.652 20.884,103.890 20.688 C 104.042 20.562,104.167 20.515,104.167 20.583 C 104.167 20.652,104.260 20.630,104.375 20.535 C 104.490 20.439,104.656 20.361,104.746 20.360 C 104.835 20.359,104.935 20.278,104.968 20.179 C 105.050 19.935,104.740 19.953,104.470 20.208 M307.167 20.500 C 307.167 20.592,307.279 20.667,307.417 20.667 C 307.554 20.667,307.667 20.734,307.667 20.816 C 307.667 21.044,308.086 21.153,308.346 20.992 C 308.519 20.885,308.420 20.783,307.961 20.591 C 307.235 20.288,307.167 20.280,307.167 20.500 M308.742 21.204 C 308.769 21.321,308.888 21.394,309.006 21.366 C 309.123 21.338,309.281 21.413,309.357 21.533 C 309.458 21.692,309.496 21.667,309.497 21.439 C 309.499 21.212,309.412 21.151,309.175 21.213 C 308.996 21.260,308.814 21.229,308.770 21.145 C 308.727 21.061,308.714 21.087,308.742 21.204 M101.708 21.284 C 101.502 21.324,101.333 21.431,101.333 21.521 C 101.333 21.612,101.258 21.640,101.167 21.583 C 101.075 21.527,101.000 21.560,101.000 21.657 C 101.000 21.754,100.892 21.833,100.761 21.833 C 100.373 21.833,98.500 22.696,98.500 22.874 C 98.500 22.965,98.685 22.917,98.911 22.769 C 99.395 22.452,99.566 22.425,99.401 22.692 C 99.260 22.920,99.596 22.748,100.042 22.365 C 100.202 22.228,100.334 22.183,100.336 22.266 C 100.337 22.349,100.395 22.327,100.464 22.219 C 100.534 22.110,100.808 21.981,101.073 21.933 C 101.339 21.885,101.608 21.761,101.672 21.658 C 101.735 21.556,101.852 21.484,101.931 21.498 C 102.010 21.513,102.102 21.444,102.135 21.346 C 102.168 21.247,102.169 21.177,102.139 21.189 C 102.108 21.202,101.915 21.245,101.708 21.284 M310.167 21.839 C 310.167 22.078,310.520 22.214,310.692 22.041 C 310.799 21.935,310.736 21.847,310.511 21.788 C 310.322 21.738,310.167 21.761,310.167 21.839 M311.026 22.162 C 311.062 22.270,311.149 22.350,311.218 22.340 C 311.288 22.330,311.461 22.437,311.603 22.579 C 311.744 22.721,311.929 22.794,312.013 22.742 C 312.098 22.690,312.167 22.724,312.167 22.818 C 312.167 22.912,312.262 22.953,312.379 22.908 C 312.497 22.863,312.849 23.016,313.162 23.247 C 313.537 23.523,313.789 23.611,313.897 23.503 C 314.096 23.304,314.021 23.216,313.583 23.141 C 313.400 23.109,313.212 23.044,313.167 22.997 C 313.053 22.879,312.285 22.547,312.102 22.537 C 312.021 22.532,311.908 22.457,311.852 22.370 C 311.689 22.116,310.949 21.929,311.026 22.162 M96.833 23.534 C 95.154 24.252,95.175 24.237,95.570 24.388 C 95.700 24.438,95.972 24.335,96.175 24.160 C 96.377 23.984,96.590 23.867,96.647 23.899 C 96.703 23.931,96.894 23.817,97.071 23.645 C 97.433 23.293,97.416 23.285,96.833 23.534 M315.793 24.277 C 315.908 24.324,315.960 24.430,315.908 24.514 C 315.856 24.598,315.874 24.672,315.948 24.679 C 316.023 24.686,316.252 24.723,316.458 24.761 C 316.672 24.801,316.833 24.748,316.833 24.638 C 316.833 24.531,316.786 24.492,316.728 24.550 C 316.670 24.608,316.466 24.545,316.274 24.411 C 316.083 24.277,315.849 24.173,315.755 24.180 C 315.660 24.187,315.678 24.231,315.793 24.277 M94.833 24.500 C 94.701 24.582,94.648 24.704,94.716 24.771 C 94.784 24.839,94.926 24.807,95.033 24.700 C 95.285 24.448,95.145 24.308,94.833 24.500 M316.947 24.899 C 316.888 25.051,316.992 25.125,317.263 25.125 C 317.749 25.125,317.768 25.066,317.350 24.842 C 317.115 24.717,317.011 24.731,316.947 24.899 M93.736 25.059 C 93.679 25.209,93.566 25.291,93.486 25.241 C 93.278 25.113,92.664 25.473,92.680 25.714 C 92.690 25.867,92.714 25.865,92.777 25.708 C 92.823 25.594,93.033 25.500,93.243 25.500 C 93.637 25.500,94.128 25.072,93.944 24.889 C 93.888 24.832,93.794 24.908,93.736 25.059 M317.936 25.406 C 317.986 25.538,318.133 25.605,318.262 25.556 C 318.392 25.506,318.542 25.581,318.596 25.722 C 318.654 25.874,318.802 25.938,318.958 25.878 C 319.131 25.811,319.180 25.843,319.102 25.970 C 319.024 26.096,319.072 26.128,319.241 26.064 C 319.602 25.925,319.591 25.913,318.752 25.518 C 317.865 25.101,317.816 25.095,317.936 25.406 M92.167 25.669 C 91.985 25.785,91.977 25.829,92.135 25.831 C 92.261 25.832,92.303 25.921,92.235 26.042 C 92.145 26.201,92.167 26.205,92.328 26.056 C 92.621 25.786,92.488 25.466,92.167 25.669 M90.772 26.392 C 90.277 26.692,90.189 26.806,90.395 26.885 C 90.557 26.948,90.647 26.908,90.623 26.786 C 90.601 26.674,90.689 26.606,90.818 26.634 C 90.947 26.662,91.104 26.602,91.166 26.500 C 91.229 26.399,91.437 26.305,91.628 26.290 C 91.820 26.276,91.940 26.205,91.895 26.132 C 91.759 25.911,91.447 25.983,90.772 26.392 M319.667 26.227 C 319.667 26.347,319.779 26.444,319.917 26.444 C 320.054 26.444,320.167 26.390,320.167 26.323 C 320.167 26.257,320.054 26.159,319.917 26.106 C 319.773 26.051,319.667 26.103,319.667 26.227 M320.389 26.578 C 320.389 26.708,320.493 26.762,320.638 26.706 C 320.800 26.644,320.846 26.678,320.769 26.803 C 320.688 26.933,320.743 26.960,320.935 26.886 C 321.129 26.812,321.183 26.839,321.101 26.972 C 321.035 27.079,321.041 27.172,321.115 27.179 C 321.545 27.220,321.896 27.328,321.983 27.447 C 322.038 27.522,322.177 27.591,322.292 27.600 C 322.776 27.639,322.848 27.675,322.750 27.833 C 322.693 27.925,322.708 28.006,322.782 28.013 C 323.257 28.058,323.565 28.169,323.667 28.333 C 323.776 28.510,324.121 28.624,324.635 28.654 C 324.755 28.661,324.816 28.726,324.772 28.798 C 324.727 28.870,324.879 28.945,325.110 28.964 C 325.607 29.005,325.868 29.143,325.764 29.310 C 325.723 29.377,325.839 29.442,326.022 29.456 C 326.329 29.479,326.326 29.459,325.969 29.188 C 325.339 28.708,324.167 28.190,324.167 28.391 C 324.167 28.492,324.053 28.412,323.914 28.214 C 323.765 28.001,323.532 27.878,323.344 27.915 C 323.169 27.948,322.987 27.872,322.938 27.746 C 322.890 27.619,322.490 27.353,322.050 27.154 C 321.610 26.955,321.056 26.694,320.819 26.573 C 320.461 26.390,320.389 26.391,320.389 26.578 M89.461 27.063 C 89.302 27.184,89.216 27.327,89.271 27.382 C 89.387 27.498,90.000 27.144,90.000 26.960 C 90.000 26.774,89.789 26.814,89.461 27.063 M87.625 27.948 C 87.268 28.041,87.239 28.278,87.583 28.278 C 87.721 28.278,87.833 28.211,87.833 28.129 C 87.833 28.047,87.920 28.034,88.026 28.099 C 88.145 28.173,88.173 28.145,88.099 28.026 C 88.034 27.920,87.966 27.842,87.948 27.853 C 87.931 27.863,87.785 27.906,87.625 27.948 M85.531 29.013 C 85.056 29.285,84.667 29.540,84.667 29.581 C 84.667 29.708,85.234 29.463,85.531 29.208 C 85.686 29.076,85.892 29.017,85.989 29.077 C 86.087 29.137,86.167 29.102,86.167 29.000 C 86.167 28.898,86.236 28.857,86.322 28.910 C 86.407 28.962,86.521 28.934,86.575 28.848 C 86.802 28.479,86.336 28.553,85.531 29.013 M83.982 29.824 C 83.589 30.151,83.589 30.156,83.941 30.161 C 84.137 30.164,84.345 30.043,84.403 29.893 C 84.562 29.478,84.424 29.456,83.982 29.824 M327.222 30.076 C 327.222 30.209,327.267 30.291,327.321 30.258 C 327.494 30.150,328.500 30.643,328.500 30.835 C 328.500 30.937,328.576 30.973,328.669 30.915 C 328.928 30.755,328.715 30.531,327.958 30.165 C 327.140 29.770,327.222 29.780,327.222 30.076 M82.776 30.481 C 82.485 30.673,82.372 30.838,82.484 30.907 C 82.585 30.969,82.667 30.936,82.667 30.833 C 82.667 30.731,82.753 30.701,82.859 30.766 C 82.971 30.835,83.007 30.812,82.943 30.710 C 82.814 30.500,83.289 30.286,83.541 30.442 C 83.645 30.506,83.669 30.472,83.599 30.359 C 83.439 30.100,83.330 30.116,82.776 30.481 M81.667 31.161 C 81.667 31.250,81.573 31.289,81.458 31.248 C 81.135 31.131,80.403 31.754,80.670 31.919 C 80.811 32.006,80.844 31.986,80.766 31.859 C 80.691 31.737,80.773 31.667,80.990 31.667 C 81.179 31.667,81.333 31.587,81.333 31.490 C 81.333 31.393,81.403 31.357,81.488 31.410 C 81.574 31.462,81.691 31.428,81.750 31.333 C 81.809 31.239,81.938 31.212,82.037 31.273 C 82.145 31.340,82.170 31.307,82.099 31.192 C 81.955 30.959,81.667 30.938,81.667 31.161 M329.439 31.249 C 329.492 31.386,329.598 31.459,329.674 31.412 C 329.751 31.365,329.979 31.496,330.181 31.705 C 330.384 31.913,330.488 31.977,330.414 31.847 C 330.313 31.671,330.350 31.637,330.556 31.716 C 331.079 31.917,330.833 31.673,330.173 31.337 C 329.384 30.934,329.315 30.926,329.439 31.249 M79.831 32.014 C 79.601 32.099,79.308 32.336,79.180 32.542 C 78.966 32.885,78.970 32.897,79.223 32.688 C 79.375 32.562,79.502 32.525,79.505 32.605 C 79.508 32.685,79.587 32.619,79.680 32.458 C 79.773 32.298,79.959 32.167,80.092 32.167 C 80.225 32.167,80.333 32.092,80.333 32.000 C 80.333 31.908,80.315 31.839,80.292 31.846 C 80.269 31.854,80.062 31.929,79.831 32.014 M331.056 32.085 C 331.056 32.214,331.112 32.284,331.180 32.242 C 331.249 32.199,331.335 32.255,331.372 32.366 C 331.422 32.515,331.469 32.518,331.557 32.375 C 331.624 32.267,331.540 32.111,331.366 32.017 C 331.132 31.892,331.056 31.909,331.056 32.085 M332.556 32.917 C 332.556 33.144,332.635 33.193,332.940 33.152 C 332.998 33.145,333.108 33.238,333.184 33.361 C 333.259 33.483,333.380 33.587,333.452 33.592 C 333.828 33.615,334.314 33.876,334.400 34.100 C 334.454 34.240,334.573 34.308,334.665 34.251 C 334.758 34.194,334.833 34.231,334.833 34.333 C 334.833 34.436,334.915 34.469,335.015 34.408 C 335.233 34.272,335.099 34.133,334.333 33.705 C 334.012 33.526,333.481 33.218,333.153 33.023 C 332.669 32.734,332.556 32.714,332.556 32.917 M78.136 32.957 C 77.981 32.992,77.866 33.162,77.879 33.337 C 77.902 33.643,77.915 33.642,78.218 33.316 C 78.569 32.940,78.551 32.865,78.136 32.957 M76.625 33.871 C 75.978 34.211,75.822 34.444,76.243 34.444 C 76.376 34.444,76.447 34.382,76.399 34.306 C 76.325 34.184,76.416 34.150,76.756 34.173 C 76.884 34.181,77.385 33.661,77.312 33.596 C 77.278 33.566,76.969 33.690,76.625 33.871 M74.884 34.906 C 74.490 35.248,74.469 35.303,74.750 35.259 C 74.933 35.230,75.062 35.113,75.035 34.999 C 75.008 34.885,75.084 34.830,75.202 34.875 C 75.321 34.921,75.515 34.855,75.632 34.729 C 76.021 34.313,75.397 34.461,74.884 34.906 M335.917 34.762 C 336.100 34.901,336.237 35.067,336.222 35.132 C 336.207 35.197,336.213 35.269,336.236 35.292 C 336.259 35.315,336.279 35.202,336.280 35.042 C 336.283 34.742,336.045 34.503,335.750 34.508 C 335.658 34.509,335.733 34.624,335.917 34.762 M73.701 35.504 C 73.129 35.852,72.989 36.058,73.444 35.883 C 73.651 35.804,73.686 35.837,73.582 36.013 C 73.505 36.144,73.654 36.043,73.913 35.789 C 74.502 35.212,74.402 35.077,73.701 35.504 M336.889 35.410 C 336.889 35.543,336.951 35.613,337.028 35.566 C 337.104 35.519,337.167 35.564,337.167 35.667 C 337.167 35.769,337.234 35.812,337.316 35.761 C 337.398 35.710,337.510 35.785,337.565 35.928 C 337.619 36.071,337.740 36.141,337.832 36.084 C 337.924 36.027,338.000 36.064,338.000 36.167 C 338.000 36.269,338.075 36.307,338.167 36.250 C 338.258 36.193,338.333 36.226,338.333 36.323 C 338.333 36.421,338.390 36.491,338.458 36.480 C 338.808 36.425,339.007 36.521,338.901 36.692 C 338.826 36.813,338.855 36.840,338.977 36.764 C 339.248 36.597,339.053 36.343,338.438 36.059 C 338.151 35.927,337.685 35.673,337.403 35.494 C 336.992 35.234,336.889 35.217,336.889 35.410 M72.245 36.396 C 72.065 36.523,71.654 36.774,71.333 36.954 C 69.609 37.924,67.642 39.242,67.827 39.303 C 67.943 39.342,68.104 39.271,68.183 39.145 C 68.263 39.020,68.329 38.987,68.331 39.073 C 68.332 39.159,68.488 39.064,68.677 38.861 C 68.865 38.658,69.102 38.543,69.202 38.605 C 69.312 38.673,69.337 38.641,69.266 38.526 C 69.191 38.404,69.273 38.333,69.490 38.333 C 69.679 38.333,69.833 38.254,69.833 38.157 C 69.833 38.060,69.920 38.034,70.026 38.099 C 70.154 38.178,70.173 38.144,70.082 37.997 C 69.983 37.837,70.021 37.806,70.221 37.882 C 70.390 37.947,70.481 37.910,70.456 37.786 C 70.435 37.674,70.529 37.583,70.667 37.583 C 70.804 37.583,71.051 37.449,71.214 37.286 C 71.378 37.122,71.596 37.040,71.698 37.103 C 71.815 37.175,71.838 37.142,71.759 37.015 C 71.682 36.889,71.720 36.825,71.858 36.848 C 72.217 36.908,72.675 36.649,72.555 36.454 C 72.486 36.343,72.549 36.316,72.723 36.383 C 72.875 36.442,73.000 36.417,73.000 36.328 C 73.000 36.096,72.627 36.129,72.245 36.396 M340.000 37.161 C 340.000 37.256,340.117 37.333,340.260 37.333 C 340.403 37.333,340.474 37.407,340.418 37.498 C 340.359 37.594,340.428 37.620,340.582 37.561 C 340.883 37.445,340.884 37.448,340.375 37.183 C 340.131 37.056,340.000 37.049,340.000 37.161 M340.918 37.831 C 340.862 37.922,340.921 37.956,341.050 37.906 C 341.185 37.855,341.401 37.995,341.559 38.236 C 341.744 38.518,341.925 38.621,342.111 38.550 C 342.286 38.483,342.347 38.509,342.278 38.622 C 342.214 38.725,342.380 38.875,342.667 38.975 C 342.942 39.071,343.163 39.097,343.160 39.033 C 343.148 38.842,342.000 38.167,342.000 38.351 C 342.000 38.444,341.924 38.473,341.831 38.415 C 341.737 38.357,341.702 38.244,341.752 38.164 C 341.802 38.083,341.695 37.938,341.516 37.842 C 341.112 37.625,341.046 37.624,340.918 37.831 M343.556 39.436 C 343.556 39.555,343.618 39.613,343.694 39.566 C 343.771 39.519,343.833 39.560,343.833 39.657 C 343.833 39.754,343.946 39.833,344.083 39.833 C 344.221 39.833,344.333 39.913,344.333 40.010 C 344.333 40.107,344.409 40.140,344.501 40.083 C 344.593 40.026,344.714 40.096,344.769 40.238 C 344.823 40.381,344.930 40.460,345.006 40.413 C 345.082 40.366,345.191 40.404,345.248 40.497 C 345.306 40.590,345.472 40.667,345.618 40.667 C 345.911 40.667,344.891 39.882,344.069 39.475 C 343.668 39.276,343.556 39.267,343.556 39.436 M66.411 39.945 C 65.192 40.695,65.255 40.644,65.385 40.774 C 65.444 40.833,65.594 40.796,65.720 40.692 C 65.845 40.588,65.997 40.552,66.057 40.613 C 66.117 40.673,66.167 40.635,66.167 40.528 C 66.167 40.421,66.284 40.333,66.427 40.333 C 66.569 40.333,66.640 40.258,66.583 40.167 C 66.527 40.075,66.541 39.998,66.615 39.996 C 66.767 39.992,67.633 39.343,67.495 39.337 C 67.446 39.335,66.959 39.609,66.411 39.945 M346.167 41.073 C 346.167 41.216,346.242 41.343,346.333 41.354 C 346.425 41.366,346.575 41.394,346.667 41.417 C 346.758 41.440,346.908 41.468,347.000 41.479 C 347.092 41.491,347.148 41.594,347.125 41.708 C 347.102 41.823,347.211 41.896,347.366 41.870 C 347.522 41.844,347.732 41.977,347.833 42.166 C 347.934 42.355,348.083 42.468,348.164 42.419 C 348.244 42.369,348.428 42.496,348.572 42.701 C 348.758 42.967,348.833 43.000,348.833 42.817 C 348.833 42.675,348.327 42.219,347.708 41.803 C 346.188 40.781,346.167 40.771,346.167 41.073 M64.180 41.376 C 63.867 41.582,63.481 41.828,63.323 41.923 C 62.775 42.254,62.504 42.539,62.597 42.688 C 62.648 42.771,62.761 42.795,62.848 42.741 C 62.934 42.688,62.962 42.574,62.910 42.488 C 62.823 42.348,63.051 42.262,63.375 42.314 C 63.444 42.324,63.500 42.254,63.500 42.157 C 63.500 42.060,63.567 42.022,63.649 42.073 C 63.731 42.123,63.843 42.048,63.898 41.905 C 63.953 41.762,64.073 41.692,64.165 41.749 C 64.258 41.806,64.333 41.774,64.333 41.677 C 64.333 41.579,64.446 41.500,64.583 41.500 C 64.721 41.500,64.833 41.387,64.833 41.250 C 64.833 40.935,64.857 40.931,64.180 41.376 M349.000 42.916 C 349.000 43.054,349.056 43.158,349.125 43.147 C 349.459 43.094,349.663 43.187,349.625 43.375 C 349.602 43.490,349.711 43.562,349.866 43.536 C 350.022 43.511,350.232 43.644,350.333 43.833 C 350.434 44.022,350.588 44.132,350.675 44.078 C 350.762 44.024,350.833 44.060,350.833 44.157 C 350.833 44.254,350.908 44.333,351.000 44.333 C 351.378 44.333,351.101 44.045,350.080 43.374 C 349.321 42.875,349.000 42.739,349.000 42.916 M61.000 43.493 C 60.496 43.856,59.858 44.271,59.583 44.416 C 58.705 44.879,58.110 45.429,58.488 45.429 C 58.665 45.429,58.772 45.370,58.728 45.298 C 58.683 45.226,58.726 45.157,58.823 45.146 C 58.921 45.134,59.094 45.116,59.208 45.104 C 59.323 45.093,59.417 44.996,59.417 44.889 C 59.417 44.614,59.545 44.517,60.010 44.439 C 60.234 44.402,60.398 44.288,60.375 44.186 C 60.352 44.083,60.483 44.000,60.667 44.000 C 60.850 44.000,61.000 43.921,61.000 43.823 C 61.000 43.726,61.067 43.688,61.149 43.739 C 61.231 43.790,61.346 43.709,61.403 43.559 C 61.461 43.408,61.555 43.333,61.614 43.391 C 61.737 43.515,62.167 43.195,62.167 42.980 C 62.167 42.719,61.933 42.822,61.000 43.493 M351.500 44.563 C 351.500 44.722,351.637 44.833,351.833 44.833 C 352.017 44.833,352.148 44.927,352.125 45.042 C 352.102 45.156,352.179 45.231,352.296 45.207 C 352.413 45.183,352.553 45.276,352.605 45.414 C 352.658 45.552,352.769 45.623,352.851 45.572 C 352.985 45.489,352.753 45.258,351.792 44.517 C 351.541 44.324,351.500 44.331,351.500 44.563 M57.267 46.011 C 56.722 46.421,56.675 46.500,56.975 46.500 C 57.172 46.500,57.333 46.425,57.333 46.333 C 57.333 46.242,57.437 46.167,57.564 46.167 C 57.691 46.167,57.834 46.017,57.882 45.833 C 57.930 45.650,57.957 45.505,57.943 45.511 C 57.928 45.518,57.624 45.743,57.267 46.011 M353.083 45.667 C 352.982 45.831,353.105 45.900,353.401 45.844 C 353.485 45.829,353.597 45.880,353.651 45.958 C 353.835 46.222,354.852 46.870,354.942 46.780 C 354.991 46.731,354.731 46.501,354.363 46.269 C 353.995 46.037,353.646 45.769,353.588 45.673 C 353.452 45.454,353.217 45.451,353.083 45.667 M55.360 47.315 C 54.882 47.632,54.704 47.837,54.837 47.919 C 54.947 47.987,55.094 47.952,55.162 47.840 C 55.231 47.729,55.354 47.626,55.435 47.611 C 55.517 47.596,55.566 47.532,55.545 47.468 C 55.524 47.405,55.655 47.307,55.837 47.249 C 56.018 47.191,56.167 47.074,56.167 46.989 C 56.167 46.777,56.176 46.773,55.360 47.315 M355.167 46.898 C 355.167 47.117,355.987 47.833,356.237 47.833 C 356.393 47.833,356.485 47.890,356.444 47.958 C 356.402 48.027,356.543 48.215,356.757 48.375 C 357.133 48.657,357.431 48.567,357.197 48.242 C 356.993 47.957,355.167 46.749,355.167 46.898 M53.947 48.326 C 53.721 48.555,53.696 48.665,53.848 48.759 C 53.971 48.835,54.009 48.816,53.943 48.710 C 53.841 48.544,54.276 48.251,54.542 48.307 C 54.610 48.321,54.667 48.258,54.667 48.167 C 54.667 47.904,54.279 47.990,53.947 48.326 M52.958 49.027 C 52.706 49.211,52.500 49.439,52.500 49.534 C 52.500 49.648,52.577 49.644,52.724 49.522 C 52.847 49.420,53.009 49.392,53.084 49.460 C 53.159 49.528,53.169 49.494,53.107 49.385 C 53.044 49.276,53.125 49.113,53.287 49.023 C 53.448 48.932,53.544 48.821,53.498 48.776 C 53.453 48.731,53.210 48.844,52.958 49.027 M357.779 48.789 C 357.679 48.954,358.099 49.345,358.232 49.212 C 358.288 49.157,358.333 49.203,358.333 49.315 C 358.333 49.428,358.404 49.476,358.490 49.423 C 358.576 49.370,358.707 49.422,358.781 49.538 C 358.856 49.655,359.104 49.856,359.333 49.985 C 359.697 50.190,359.725 50.189,359.549 49.977 C 359.202 49.557,357.859 48.656,357.779 48.789 M51.975 49.716 C 51.847 49.843,51.557 50.047,51.330 50.168 C 51.087 50.298,51.003 50.418,51.124 50.458 C 51.237 50.496,51.450 50.408,51.595 50.262 C 51.741 50.116,51.930 50.040,52.015 50.092 C 52.100 50.145,52.215 50.067,52.272 49.920 C 52.414 49.549,52.253 49.438,51.975 49.716 M359.833 50.411 C 359.833 50.552,359.972 50.667,360.142 50.667 C 360.313 50.667,360.631 50.883,360.851 51.147 C 361.070 51.411,361.400 51.659,361.583 51.699 C 361.767 51.738,361.903 51.843,361.887 51.933 C 361.871 52.022,362.007 52.095,362.190 52.095 C 362.509 52.095,361.984 51.561,361.555 51.449 C 361.486 51.431,361.201 51.205,360.923 50.947 C 360.193 50.270,359.833 50.093,359.833 50.411 M50.059 51.129 C 49.655 51.394,49.375 51.705,49.386 51.876 C 49.401 52.117,49.472 52.090,49.786 51.725 C 49.995 51.481,50.169 51.349,50.172 51.432 C 50.175 51.515,50.254 51.451,50.349 51.288 C 50.443 51.126,50.578 51.029,50.649 51.072 C 50.720 51.116,50.778 51.043,50.778 50.909 C 50.778 50.776,50.772 50.669,50.764 50.671 C 50.756 50.673,50.439 50.879,50.059 51.129 M48.616 52.208 C 48.379 52.415,47.770 52.883,47.263 53.250 C 46.298 53.949,46.170 54.111,46.583 54.111 C 46.721 54.111,46.799 54.077,46.758 54.036 C 46.617 53.895,47.163 53.478,47.343 53.589 C 47.443 53.651,47.563 53.545,47.613 53.352 C 47.664 53.160,47.771 53.045,47.852 53.095 C 47.934 53.145,48.000 53.102,48.000 53.000 C 48.000 52.898,48.094 52.868,48.208 52.934 C 48.323 52.999,48.361 52.992,48.293 52.917 C 48.163 52.774,48.824 52.223,49.042 52.293 C 49.110 52.315,49.167 52.221,49.167 52.083 C 49.167 51.756,49.128 51.765,48.616 52.208 M362.720 52.500 C 362.755 52.729,362.813 52.885,362.850 52.847 C 362.887 52.808,363.085 52.867,363.292 52.978 C 363.532 53.106,363.667 53.116,363.667 53.006 C 363.667 52.911,363.558 52.833,363.426 52.833 C 363.294 52.833,363.067 52.665,362.922 52.458 L 362.658 52.083 362.720 52.500 M364.000 53.667 C 364.000 53.758,364.070 53.833,364.155 53.833 C 364.240 53.833,364.427 53.951,364.571 54.095 C 364.777 54.301,364.833 54.308,364.833 54.129 C 364.833 54.003,364.743 53.810,364.633 53.700 C 364.391 53.457,364.000 53.437,364.000 53.667 M365.000 54.138 C 365.000 54.235,365.150 54.419,365.332 54.547 C 365.515 54.675,365.609 54.841,365.541 54.917 C 365.472 54.992,365.510 54.999,365.625 54.934 C 365.740 54.868,365.833 54.875,365.833 54.949 C 365.833 55.024,366.059 55.185,366.334 55.307 C 366.615 55.431,366.787 55.607,366.725 55.707 C 366.660 55.812,366.694 55.836,366.808 55.766 C 366.918 55.698,367.000 55.746,367.000 55.879 C 367.000 56.007,367.105 56.111,367.234 56.111 C 367.597 56.111,367.378 55.765,366.799 55.423 C 366.511 55.253,365.989 54.855,365.638 54.538 C 365.287 54.221,365.000 54.041,365.000 54.138 M45.664 54.503 C 45.263 54.807,45.261 54.816,45.613 54.791 C 45.813 54.776,45.944 54.711,45.904 54.646 C 45.864 54.581,45.925 54.495,46.041 54.454 C 46.156 54.413,46.211 54.336,46.164 54.284 C 46.117 54.232,45.892 54.331,45.664 54.503 M44.118 55.729 C 43.783 56.036,43.481 56.259,43.448 56.226 C 43.414 56.192,43.251 56.315,43.084 56.499 C 42.918 56.683,42.832 56.833,42.893 56.833 C 43.096 56.833,43.748 56.420,43.885 56.205 C 43.960 56.088,44.093 56.038,44.181 56.092 C 44.269 56.147,44.321 56.092,44.296 55.971 C 44.271 55.849,44.349 55.771,44.471 55.796 C 44.592 55.821,44.648 55.771,44.595 55.685 C 44.541 55.599,44.592 55.495,44.707 55.454 C 44.822 55.413,44.874 55.332,44.822 55.275 C 44.770 55.218,44.453 55.422,44.118 55.729 M367.667 56.411 C 367.667 56.552,367.724 56.648,367.795 56.625 C 368.007 56.556,368.831 57.279,368.703 57.421 C 368.637 57.494,368.677 57.499,368.792 57.434 C 368.906 57.368,369.000 57.398,369.000 57.500 C 369.000 57.602,369.078 57.638,369.172 57.580 C 369.272 57.518,369.148 57.322,368.881 57.115 C 368.625 56.917,368.391 56.698,368.360 56.626 C 368.230 56.324,367.667 56.149,367.667 56.411 M42.167 57.250 C 41.832 57.441,41.810 57.489,42.054 57.494 C 42.221 57.497,42.470 57.387,42.607 57.250 C 42.920 56.937,42.714 56.937,42.167 57.250 M40.995 58.171 C 40.351 58.732,40.306 58.767,39.542 59.330 C 39.244 59.550,39.002 59.846,39.005 59.990 C 39.009 60.204,39.040 60.198,39.182 59.955 C 39.276 59.792,39.436 59.710,39.536 59.772 C 39.647 59.841,39.670 59.808,39.597 59.688 C 39.519 59.562,39.660 59.427,39.987 59.313 C 40.269 59.215,40.463 59.074,40.417 59.001 C 40.325 58.852,40.825 58.592,41.083 58.654 C 41.175 58.676,41.197 58.642,41.133 58.577 C 40.977 58.421,41.411 58.000,41.728 58.000 C 41.867 58.000,42.027 57.925,42.083 57.833 C 42.314 57.459,41.535 57.701,40.995 58.171 M369.459 57.777 C 369.575 57.824,369.625 57.932,369.572 58.018 C 369.519 58.104,369.537 58.155,369.613 58.130 C 369.774 58.078,370.445 58.526,370.478 58.708 C 370.490 58.777,370.543 58.828,370.596 58.822 C 370.649 58.816,370.826 58.966,370.991 59.156 C 371.333 59.551,371.500 59.593,371.500 59.286 C 371.500 59.168,371.294 58.947,371.042 58.794 C 370.790 58.642,370.365 58.325,370.099 58.092 C 369.833 57.858,369.533 57.673,369.432 57.680 C 369.328 57.687,369.340 57.729,369.459 57.777 M371.889 59.750 C 371.889 59.887,371.973 60.000,372.076 60.000 C 372.353 60.000,373.490 61.118,373.361 61.263 C 373.300 61.331,373.344 61.332,373.460 61.266 C 373.663 61.149,374.227 61.550,374.074 61.703 C 373.974 61.804,374.520 62.292,374.812 62.362 C 374.938 62.392,375.294 62.672,375.604 62.984 C 375.913 63.296,376.167 63.484,376.167 63.402 C 376.167 63.199,377.081 64.199,377.091 64.413 C 377.095 64.507,377.191 64.564,377.304 64.540 C 377.417 64.516,377.553 64.610,377.605 64.747 C 377.658 64.885,377.769 64.957,377.851 64.906 C 377.933 64.855,378.000 64.931,378.000 65.073 C 378.000 65.216,378.131 65.333,378.292 65.332 C 378.740 65.330,374.971 61.923,374.505 61.909 C 374.365 61.905,374.268 61.814,374.289 61.707 C 374.311 61.601,374.052 61.304,373.713 61.048 C 373.374 60.793,372.843 60.340,372.534 60.042 C 371.886 59.417,371.889 59.419,371.889 59.750 M37.802 60.798 C 37.280 61.226,36.885 61.607,36.923 61.645 C 36.961 61.683,37.094 61.629,37.220 61.525 C 37.345 61.421,37.490 61.379,37.542 61.431 C 37.594 61.483,37.686 61.369,37.746 61.179 C 37.850 60.852,38.041 60.752,38.417 60.827 C 38.508 60.846,38.527 60.805,38.458 60.736 C 38.389 60.667,38.457 60.473,38.609 60.305 C 39.042 59.827,38.827 59.958,37.802 60.798 M36.162 62.171 C 35.821 62.428,35.788 62.520,35.970 62.699 C 36.151 62.878,36.181 62.874,36.137 62.674 C 36.107 62.541,36.196 62.425,36.333 62.417 C 36.471 62.408,36.562 62.302,36.535 62.180 C 36.505 62.043,36.582 61.996,36.738 62.056 C 36.876 62.109,37.024 62.096,37.066 62.027 C 37.228 61.767,36.556 61.873,36.162 62.171 M35.257 63.032 C 35.078 63.136,34.641 63.509,34.286 63.861 C 33.931 64.212,33.605 64.500,33.563 64.500 C 33.520 64.500,33.316 64.669,33.109 64.875 C 32.902 65.081,32.550 65.374,32.325 65.526 C 31.968 65.767,31.948 65.830,32.164 66.026 C 32.300 66.149,32.362 66.187,32.301 66.109 C 32.197 65.977,33.262 64.917,33.498 64.917 C 33.672 64.917,34.167 64.374,34.167 64.184 C 34.167 63.997,34.837 63.573,35.042 63.631 C 35.110 63.651,35.148 63.573,35.125 63.458 C 35.102 63.344,35.170 63.266,35.276 63.286 C 35.382 63.306,35.511 63.213,35.562 63.078 C 35.673 62.790,35.676 62.790,35.257 63.032 M378.667 65.457 C 378.667 65.649,379.307 66.249,379.406 66.149 C 379.445 66.110,379.295 65.903,379.072 65.688 C 378.849 65.474,378.667 65.370,378.667 65.457 M30.958 66.733 C 30.317 67.300,30.200 67.500,30.510 67.500 C 30.607 67.500,30.643 67.430,30.591 67.345 C 30.538 67.260,30.646 67.143,30.831 67.084 C 31.016 67.025,31.167 66.908,31.167 66.822 C 31.167 66.737,31.260 66.685,31.375 66.708 C 31.490 66.731,31.562 66.647,31.535 66.521 C 31.503 66.373,31.580 66.328,31.752 66.394 C 31.906 66.453,31.974 66.427,31.915 66.331 C 31.761 66.081,31.637 66.133,30.958 66.733 M379.667 66.343 C 379.667 66.440,379.573 66.466,379.458 66.400 C 379.344 66.334,379.300 66.336,379.361 66.404 C 379.422 66.472,379.535 66.528,379.611 66.528 C 379.688 66.528,379.856 66.616,379.986 66.723 C 380.185 66.887,380.191 66.860,380.021 66.542 C 379.806 66.138,379.667 66.060,379.667 66.343 M380.790 67.349 C 380.904 67.495,380.960 67.651,380.914 67.697 C 380.869 67.743,380.982 67.916,381.166 68.082 C 381.350 68.249,381.500 68.327,381.500 68.255 C 381.500 68.184,381.613 68.219,381.750 68.333 C 381.887 68.447,382.000 68.489,382.000 68.425 C 382.000 68.209,381.525 67.833,381.252 67.833 C 381.103 67.833,381.021 67.767,381.072 67.686 C 381.122 67.604,381.033 67.436,380.873 67.311 C 380.617 67.110,380.607 67.114,380.790 67.349 M29.743 67.844 C 29.690 67.931,29.799 67.978,29.986 67.949 C 30.452 67.878,30.554 67.742,30.163 67.712 C 29.985 67.699,29.796 67.758,29.743 67.844 M382.279 68.792 C 382.352 69.059,383.639 70.090,383.748 69.969 C 383.774 69.940,383.436 69.598,382.997 69.209 C 382.505 68.773,382.229 68.613,382.279 68.792 M28.627 68.905 C 28.468 69.021,28.387 69.165,28.447 69.225 C 28.507 69.284,28.468 69.333,28.362 69.333 C 28.133 69.333,26.833 70.476,26.833 70.678 C 26.833 70.754,27.115 70.558,27.458 70.242 C 27.802 69.927,28.158 69.666,28.250 69.662 C 28.429 69.656,29.071 68.849,28.974 68.752 C 28.942 68.720,28.786 68.789,28.627 68.905 M384.418 70.834 C 384.584 71.018,384.756 71.133,384.801 71.088 C 384.912 70.976,384.497 70.500,384.287 70.500 C 384.192 70.500,384.251 70.650,384.418 70.834 M26.241 71.116 C 26.036 71.321,26.014 71.421,26.161 71.470 C 26.434 71.561,26.921 71.074,26.696 70.935 C 26.603 70.877,26.398 70.959,26.241 71.116 M24.762 72.488 C 24.414 72.844,24.169 73.237,24.218 73.360 C 24.283 73.522,24.311 73.526,24.320 73.375 C 24.333 73.174,24.915 72.499,25.028 72.556 C 25.058 72.571,25.066 72.553,25.044 72.516 C 25.023 72.480,25.135 72.355,25.294 72.238 C 25.453 72.122,25.541 71.985,25.489 71.933 C 25.437 71.882,25.110 72.131,24.762 72.488 M386.000 72.330 C 386.137 72.417,386.250 72.566,386.250 72.661 C 386.250 72.756,386.325 72.839,386.417 72.845 C 386.706 72.866,387.163 73.371,387.054 73.548 C 386.996 73.642,387.025 73.671,387.119 73.613 C 387.212 73.555,387.423 73.656,387.587 73.837 C 387.751 74.018,387.953 74.167,388.037 74.167 C 388.121 74.167,387.735 73.717,387.180 73.167 C 386.625 72.617,386.076 72.168,385.960 72.169 C 385.818 72.171,385.831 72.223,386.000 72.330 M23.031 74.218 C 22.643 74.614,22.378 74.989,22.441 75.052 C 22.504 75.115,22.431 75.167,22.278 75.167 C 22.125 75.167,22.000 75.279,22.000 75.417 C 22.000 75.554,21.925 75.667,21.833 75.667 C 21.534 75.667,21.427 75.742,20.793 76.395 C 20.448 76.750,20.167 77.148,20.167 77.280 C 20.167 77.419,20.086 77.470,19.974 77.401 C 19.850 77.324,19.827 77.355,19.909 77.488 C 20.055 77.723,21.009 76.917,20.950 76.609 C 20.932 76.512,21.029 76.425,21.167 76.417 C 21.304 76.408,21.398 76.311,21.375 76.201 C 21.352 76.090,21.432 76.000,21.552 76.000 C 21.673 76.000,21.987 75.775,22.250 75.500 C 22.513 75.225,22.677 75.000,22.615 75.000 C 22.552 75.000,22.631 74.862,22.792 74.693 C 22.952 74.524,23.140 74.417,23.210 74.454 C 23.279 74.491,23.387 74.385,23.449 74.219 C 23.512 74.053,23.680 73.825,23.823 73.714 C 23.966 73.602,24.005 73.508,23.910 73.505 C 23.814 73.502,23.419 73.823,23.031 74.218 M389.168 75.251 C 389.167 75.437,390.148 76.411,390.237 76.312 C 390.268 76.278,390.040 75.987,389.731 75.667 C 389.422 75.346,389.168 75.159,389.168 75.251 M391.177 77.333 C 391.302 77.563,391.386 77.812,391.365 77.887 C 391.343 77.963,391.396 77.981,391.482 77.928 C 391.678 77.807,392.202 78.308,392.082 78.502 C 392.034 78.580,392.055 78.681,392.129 78.727 C 392.579 79.005,392.194 78.117,391.629 77.572 C 391.111 77.073,391.004 77.016,391.177 77.333 M19.344 77.904 C 19.230 78.042,19.214 78.176,19.306 78.233 C 19.392 78.286,19.549 78.225,19.656 78.096 C 19.770 77.958,19.786 77.824,19.694 77.767 C 19.608 77.714,19.451 77.775,19.344 77.904 M18.250 79.000 C 17.892 79.367,17.689 79.667,17.800 79.667 C 17.910 79.667,18.000 79.592,18.000 79.500 C 18.000 79.408,18.056 79.352,18.125 79.375 C 18.194 79.398,18.253 79.379,18.258 79.333 C 18.277 79.124,18.908 78.526,19.030 78.602 C 19.105 78.648,19.167 78.607,19.167 78.510 C 19.167 78.188,18.908 78.326,18.250 79.000 M393.259 79.486 C 393.203 79.576,393.309 79.731,393.494 79.830 C 393.679 79.929,393.812 80.098,393.790 80.206 C 393.768 80.313,393.830 80.405,393.929 80.409 C 394.138 80.418,394.755 81.000,394.555 81.000 C 394.481 81.000,394.622 81.188,394.869 81.417 C 395.117 81.646,395.386 81.833,395.469 81.833 C 395.551 81.833,395.817 82.073,396.059 82.365 C 396.302 82.658,396.500 82.827,396.500 82.740 C 396.500 82.463,393.364 79.315,393.259 79.486 M16.047 81.250 C 15.486 81.816,15.239 82.167,15.402 82.167 C 15.548 82.167,15.667 82.087,15.667 81.990 C 15.667 81.893,15.744 81.861,15.837 81.919 C 15.931 81.977,15.998 81.963,15.984 81.887 C 15.921 81.521,16.018 81.324,16.208 81.434 C 16.323 81.499,16.361 81.492,16.293 81.417 C 16.152 81.262,16.478 80.800,16.652 80.908 C 16.715 80.947,16.857 80.833,16.968 80.656 C 17.323 80.088,16.982 80.308,16.047 81.250 M14.615 82.801 C 14.368 83.058,14.167 83.329,14.167 83.403 C 14.167 83.476,14.314 83.360,14.494 83.143 C 14.675 82.927,14.825 82.815,14.828 82.895 C 14.835 83.083,15.333 82.673,15.333 82.480 C 15.333 82.210,15.066 82.329,14.615 82.801 M396.811 83.224 C 396.914 83.347,396.948 83.497,396.887 83.557 C 396.827 83.617,396.903 83.667,397.056 83.667 C 397.208 83.667,397.315 83.723,397.292 83.792 C 397.269 83.860,397.306 83.935,397.375 83.958 C 397.594 84.031,398.250 84.743,398.258 84.917 C 398.262 85.008,398.337 85.072,398.424 85.058 C 398.512 85.043,398.680 85.137,398.798 85.266 C 398.974 85.457,398.974 85.502,398.798 85.511 C 398.680 85.516,398.757 85.591,398.969 85.676 C 399.201 85.769,399.307 85.908,399.235 86.024 C 399.165 86.138,399.187 86.173,399.290 86.110 C 399.386 86.051,399.508 86.114,399.561 86.251 C 399.613 86.388,399.739 86.500,399.840 86.500 C 399.941 86.500,399.863 86.294,399.666 86.042 C 399.175 85.414,396.837 83.000,396.720 83.000 C 396.668 83.000,396.709 83.101,396.811 83.224 M12.917 84.555 C 12.825 84.670,12.614 84.922,12.447 85.115 C 12.221 85.378,12.196 85.499,12.348 85.593 C 12.473 85.670,12.509 85.649,12.440 85.538 C 12.378 85.438,12.484 85.308,12.677 85.247 C 12.868 85.186,12.983 85.094,12.932 85.043 C 12.881 84.992,13.000 84.812,13.195 84.642 C 13.430 84.439,13.471 84.335,13.317 84.340 C 13.189 84.343,13.008 84.440,12.917 84.555 M11.375 86.292 C 11.077 86.629,10.836 86.983,10.839 87.078 C 10.842 87.172,10.998 87.043,11.186 86.791 C 11.378 86.534,11.614 86.380,11.723 86.443 C 11.829 86.504,11.863 86.494,11.798 86.421 C 11.732 86.349,11.753 86.149,11.845 85.978 C 12.083 85.533,11.989 85.596,11.375 86.292 M10.226 87.748 C 10.279 87.884,10.268 87.988,10.202 87.978 C 9.899 87.933,9.667 88.015,9.667 88.167 C 9.667 88.438,10.094 88.357,10.391 88.028 C 10.658 87.733,10.612 87.500,10.288 87.500 C 10.202 87.500,10.174 87.612,10.226 87.748 M7.855 90.258 C 7.179 91.041,6.673 91.728,6.730 91.785 C 6.787 91.842,6.833 91.804,6.833 91.700 C 6.833 91.596,7.017 91.415,7.241 91.297 C 7.465 91.179,7.660 91.008,7.674 90.917 C 7.688 90.825,7.765 90.768,7.844 90.790 C 7.923 90.811,7.945 90.718,7.893 90.583 C 7.838 90.438,7.921 90.289,8.095 90.222 C 8.411 90.101,9.074 89.500,8.891 89.500 C 8.831 89.500,8.917 89.350,9.083 89.167 C 9.249 88.983,9.317 88.834,9.234 88.834 C 9.151 88.834,8.530 89.475,7.855 90.258 M5.854 92.611 C 5.361 93.129,5.351 93.162,5.704 93.108 C 5.913 93.076,6.083 92.960,6.083 92.849 C 6.083 92.738,6.260 92.514,6.476 92.352 C 6.729 92.160,6.782 92.056,6.625 92.056 C 6.491 92.056,6.144 92.305,5.854 92.611 M4.912 93.711 C 4.116 94.588,3.145 95.833,3.257 95.833 C 3.323 95.833,3.512 95.678,3.676 95.489 C 3.840 95.300,4.037 95.150,4.112 95.156 C 4.188 95.162,4.250 95.086,4.250 94.987 C 4.250 94.888,4.370 94.719,4.517 94.612 C 4.663 94.504,4.794 94.342,4.808 94.250 C 4.822 94.158,4.902 94.083,4.986 94.083 C 5.200 94.083,5.392 93.867,5.435 93.579 C 5.485 93.233,5.305 93.278,4.912 93.711 M2.545 96.634 C 1.965 97.325,1.958 97.498,2.526 97.100 C 2.736 96.953,2.835 96.831,2.745 96.828 C 2.656 96.825,2.754 96.680,2.962 96.507 C 3.170 96.333,3.278 96.152,3.201 96.105 C 3.124 96.057,2.829 96.295,2.545 96.634 M1.411 98.128 C 1.091 98.355,-0.041 99.833,0.105 99.833 C 0.185 99.833,0.400 99.607,0.583 99.332 C 0.767 99.057,1.054 98.787,1.221 98.734 C 1.388 98.680,1.483 98.594,1.431 98.542 C 1.379 98.490,1.420 98.347,1.522 98.224 C 1.726 97.978,1.679 97.937,1.411 98.128 " stroke="none" fill="#fcfcfc" fill-rule="evenodd"></path><path id="path1" d="" stroke="none" fill="#100fcfc" fill-rule="evenodd"></path><path id="path2" d="" stroke="none" fill="#100fcfc" fill-rule="evenodd"></path><path id="path3" d="" stroke="none" fill="#100fcfc" fill-rule="evenodd"></path><path id="path4" d="" stroke="none" fill="#100fcfc" fill-rule="evenodd"></path></g></svg>