<?xml version="1.0" standalone="no"?>
<!DOCTYPE svg PUBLIC "-//W3C//DTD SVG 20010904//EN"
 "http://www.w3.org/TR/2001/REC-SVG-20010904/DTD/svg10.dtd">
<svg version="1.0" xmlns="http://www.w3.org/2000/svg"
 width="1920.000000pt" height="501.000000pt" viewBox="0 0 1920.000000 501.000000"
 preserveAspectRatio="xMidYMid meet">
<metadata>
Created by potrace 1.16, written by Peter Selinger 2001-2019
</metadata>
<g transform="translate(0.000000,501.000000) scale(0.100000,-0.100000)"
fill="#000000" stroke="none">
<path d="M9574 4999 c-1353 -34 -2596 -260 -3874 -706 -828 -290 -1718 -720
-2485 -1201 -1174 -737 -2219 -1665 -3103 -2755 l-112 -139 0 -99 0 -99 9600
0 9600 0 0 420 0 421 -112 122 c-645 700 -1396 1347 -2186 1881 -774 524
-1590 956 -2427 1286 -412 162 -923 332 -1320 439 -976 262 -1973 407 -2925
426 -140 3 -282 7 -315 8 -33 2 -186 0 -341 -4z"/>
</g>
</svg>
