<svg xmlns="http://www.w3.org/2000/svg" viewBox="0 0 547 674" width="547" height="674">
	<defs>
		<linearGradient id="grd1" gradientUnits="userSpaceOnUse"  x1="259.391" y1="431.232" x2="254.163" y2="809.39">
			<stop offset="0" stop-color="#f05f6f"  />
			<stop offset="1" stop-color="#9f2c69"  />
		</linearGradient>
		<linearGradient id="grd2" gradientUnits="userSpaceOnUse"  x1="386.411" y1="409.72" x2="173.805" y2="604.129">
			<stop offset="0" stop-color="#f05f6f"  />
			<stop offset="1" stop-color="#9f2c69"  />
		</linearGradient>
		<linearGradient id="grd3" gradientUnits="userSpaceOnUse"  x1="320.653" y1="338.976" x2="202.442" y2="489.31">
			<stop offset="0" stop-color="#f05f6f"  />
			<stop offset="1" stop-color="#9f2c69"  />
		</linearGradient>
		<linearGradient id="grd4" gradientUnits="userSpaceOnUse"  x1="275.596" y1="0.832" x2="272.339" y2="342.785">
			<stop offset="0" stop-color="#00b1ed"  />
			<stop offset="1" stop-color="#0099bf"  />
		</linearGradient>
		<linearGradient id="grd5" gradientUnits="userSpaceOnUse"  x1="269.19" y1="63.247" x2="266.269" y2="369.886">
			<stop offset="0" stop-color="#0077ed"  />
			<stop offset="1" stop-color="#004def"  />
		</linearGradient>
		<linearGradient id="grd6" gradientUnits="userSpaceOnUse"  x1="281.956" y1="113.381" x2="282.739" y2="402.508">
			<stop offset="0" stop-color="#003da0"  />
			<stop offset="0.751" stop-color="#000f47"  />
			<stop offset="1" stop-color="#00002a"  />
		</linearGradient>
		<linearGradient id="grd7" gradientUnits="userSpaceOnUse"  x1="77.62" y1="98.754" x2="437.845" y2="98.754">
			<stop offset="0" stop-color="#00e2d7"  />
			<stop offset="1" stop-color="#ffffff"  />
		</linearGradient>
		<linearGradient id="grd8" gradientUnits="userSpaceOnUse"  x1="366.17" y1="563.502" x2="122.561" y2="417.504">
			<stop offset="0" stop-color="#079fd7"  />
			<stop offset="1" stop-color="#0074bf"  />
		</linearGradient>
		<linearGradient id="grd9" gradientUnits="userSpaceOnUse"  x1="339.338" y1="554.151" x2="267.427" y2="471.142">
			<stop offset="0" stop-color="#072ed7"  />
			<stop offset="1" stop-color="#0055bf"  />
		</linearGradient>
		<linearGradient id="grd10" gradientUnits="userSpaceOnUse"  x1="222.444" y1="489.688" x2="336.948" y2="489.688">
			<stop offset="0" stop-color="#072ed7"  />
			<stop offset="1" stop-color="#0055bf"  />
		</linearGradient>
		<linearGradient id="grd11" gradientUnits="userSpaceOnUse"  x1="64.186" y1="799.959" x2="54.632" y2="433.728">
			<stop offset="0" stop-color="#ff826a"  />
			<stop offset="1" stop-color="#ffcbaa"  />
		</linearGradient>
		<linearGradient id="grd12" gradientUnits="userSpaceOnUse"  x1="479.6" y1="792.743" x2="469.921" y2="421.737">
			<stop offset="0" stop-color="#ff826a"  />
			<stop offset="0.633" stop-color="#ffb092"  />
			<stop offset="1" stop-color="#ffcbaa"  />
		</linearGradient>
		<linearGradient id="grd13" gradientUnits="userSpaceOnUse"  x1="73.543" y1="575.299" x2="55.239" y2="546.265">
			<stop offset="0" stop-color="#000000"  />
			<stop offset="0.283" stop-color="#766a62"  />
			<stop offset="1" stop-color="#ffe5d4"  />
		</linearGradient>
		<linearGradient id="grd14" gradientUnits="userSpaceOnUse"  x1="230.124" y1="269.984" x2="273.433" y2="464.072">
			<stop offset="0" stop-color="#f09a6f"  />
			<stop offset="1" stop-color="#d62c69"  />
		</linearGradient>
		<linearGradient id="grd15" gradientUnits="userSpaceOnUse"  x1="151.857" y1="351.289" x2="197.622" y2="318.628">
			<stop offset="0" stop-color="#ffffff"  />
			<stop offset="1" stop-color="#ffffff"  />
		</linearGradient>
		<linearGradient id="grd16" gradientUnits="userSpaceOnUse"  x1="320.22" y1="329.929" x2="354.666" y2="329.929">
			<stop offset="0" stop-color="#ffffff"  />
			<stop offset="1" stop-color="#ffffff"  />
		</linearGradient>
		<linearGradient id="grd17" gradientUnits="userSpaceOnUse"  x1="256.091" y1="328.557" x2="257.343" y2="260.562">
			<stop offset="0" stop-color="#d35f6f"  />
			<stop offset="0.445" stop-color="#7c486c"  />
			<stop offset="1" stop-color="#0f2c69"  />
		</linearGradient>
		<linearGradient id="grd18" gradientUnits="userSpaceOnUse"  x1="288.77" y1="414.752" x2="208.55" y2="104.336">
			<stop offset="0" stop-color="#f05f6f"  />
			<stop offset="1" stop-color="#9f2c69"  />
		</linearGradient>
		<linearGradient id="grd19" gradientUnits="userSpaceOnUse"  x1="258.113" y1="218.871" x2="250.958" y2="165.66">
			<stop offset="0" stop-color="#f05f6f"  />
			<stop offset="1" stop-color="#9f2c69"  />
		</linearGradient>
		<linearGradient id="grd20" gradientUnits="userSpaceOnUse"  x1="252.451" y1="159.807" x2="252.912" y2="211.898">
			<stop offset="0" stop-color="#ff826a"  />
			<stop offset="1" stop-color="#ffcbaa"  />
		</linearGradient>
		<linearGradient id="grd21" gradientUnits="userSpaceOnUse"  x1="252.819" y1="69.046" x2="251.985" y2="157.064">
			<stop offset="0" stop-color="#ff826a"  />
			<stop offset="1" stop-color="#ffcbaa"  />
		</linearGradient>
		<linearGradient id="grd22" gradientUnits="userSpaceOnUse"  x1="179.035" y1="460.677" x2="403.237" y2="462.865">
			<stop offset="0" stop-color="#079fd7"  />
			<stop offset="1" stop-color="#0099bf"  />
		</linearGradient>
		<linearGradient id="grd23" gradientUnits="userSpaceOnUse"  x1="179.886" y1="488.648" x2="400.696" y2="480.367">
			<stop offset="0" stop-color="#077ad7"  />
			<stop offset="1" stop-color="#0055bf"  />
		</linearGradient>
		<linearGradient id="grd24" gradientUnits="userSpaceOnUse"  x1="244.54" y1="123.442" x2="256.22" y2="123.442">
			<stop offset="0" stop-color="#f05f6f"  />
			<stop offset="1" stop-color="#9f2c69"  />
		</linearGradient>
		<linearGradient id="grd25" gradientUnits="userSpaceOnUse"  x1="225.291" y1="110.829" x2="225.574" y2="131.158">
			<stop offset="0" stop-color="#f05f6f"  />
			<stop offset="1" stop-color="#9f2c69"  />
		</linearGradient>
		<linearGradient id="grd26" gradientUnits="userSpaceOnUse"  x1="275.339" y1="110.359" x2="275.621" y2="130.688">
			<stop offset="0" stop-color="#f05f6f"  />
			<stop offset="1" stop-color="#9f2c69"  />
		</linearGradient>
		<linearGradient id="grd27" gradientUnits="userSpaceOnUse"  x1="245.867" y1="1.143" x2="253.098" y2="115.719">
			<stop offset="0" stop-color="#00b1ed"  />
			<stop offset="1" stop-color="#0099bf"  />
		</linearGradient>
		<linearGradient id="grd28" gradientUnits="userSpaceOnUse"  x1="215.206" y1="411.135" x2="102.427" y2="226.784">
			<stop offset="0" stop-color="#ff826a"  />
			<stop offset="1" stop-color="#ffdfd4"  />
		</linearGradient>
		<linearGradient id="grd29" gradientUnits="userSpaceOnUse"  x1="353.306" y1="395.646" x2="347.886" y2="233.062">
			<stop offset="0" stop-color="#ff826a"  />
			<stop offset="1" stop-color="#ffcbaa"  />
		</linearGradient>
		<linearGradient id="grd30" gradientUnits="userSpaceOnUse"  x1="267.031" y1="489.921" x2="413.066" y2="489.921">
			<stop offset="0" stop-color="#072ed7"  />
			<stop offset="1" stop-color="#0055bf"  />
		</linearGradient>
		<linearGradient id="grd31" gradientUnits="userSpaceOnUse"  x1="108.198" y1="438.425" x2="317.257" y2="438.425">
			<stop offset="0" stop-color="#00e2d7"  />
			<stop offset="1" stop-color="#ffffff"  />
		</linearGradient>
		<linearGradient id="grd32" gradientUnits="userSpaceOnUse"  x1="68.679" y1="293.245" x2="254.463" y2="293.245">
			<stop offset="0" stop-color="#ff826a"  />
			<stop offset="1" stop-color="#ffcbaa"  />
		</linearGradient>
		<linearGradient id="grd33" gradientUnits="userSpaceOnUse"  x1="112.901" y1="321.347" x2="232.182" y2="236.221">
			<stop offset="0" stop-color="#000000"  />
			<stop offset="0.283" stop-color="#766a62"  />
			<stop offset="1" stop-color="#ffe5d4"  />
		</linearGradient>
		<linearGradient id="grd34" gradientUnits="userSpaceOnUse"  x1="376.97" y1="370.057" x2="347.007" y2="229.677">
			<stop offset="0" stop-color="#000000"  />
			<stop offset="1" stop-color="#ffe5d4"  />
		</linearGradient>
		<linearGradient id="grd35" gradientUnits="userSpaceOnUse"  x1="464.812" y1="483.865" x2="472.534" y2="526.334">
			<stop offset="0" stop-color="#000000"  />
			<stop offset="0.283" stop-color="#766a62"  />
			<stop offset="1" stop-color="#ffe5d4"  />
		</linearGradient>
	</defs>
	<style>
		tspan { white-space:pre }
		.shp0 { fill: url(#grd1) } 
		.shp1 { opacity: 0.502;fill: url(#grd2) } 
		.shp2 { opacity: 0.4;fill: url(#grd3) } 
		.shp3 { fill: url(#grd4) } 
		.shp4 { opacity: 0.2;fill: url(#grd5) } 
		.shp5 { opacity: 0.2;fill: url(#grd6) } 
		.shp6 { opacity: 0.2;fill: url(#grd7) } 
		.shp7 { fill: url(#grd8) } 
		.shp8 { opacity: 0.2;fill: url(#grd9) } 
		.shp9 { opacity: 0.2;fill: url(#grd10) } 
		.shp10 { fill: url(#grd11) } 
		.shp11 { fill: url(#grd12) } 
		.shp12 { fill: url(#grd13) } 
		.shp13 { fill: url(#grd14) } 
		.shp14 { opacity: 0.2;fill: url(#grd15) } 
		.shp15 { opacity: 0.2;fill: url(#grd16) } 
		.shp16 { opacity: 0.4;fill: url(#grd17) } 
		.shp17 { opacity: 0.2;fill: url(#grd18) } 
		.shp18 { opacity: 0.4;fill: url(#grd19) } 
		.shp19 { fill: url(#grd20) } 
		.shp20 { fill: url(#grd21) } 
		.shp21 { fill: url(#grd22) } 
		.shp22 { opacity: 0.2;fill: url(#grd23) } 
		.shp23 { opacity: 0.4;fill: url(#grd24) } 
		.shp24 { opacity: 0.4;fill: url(#grd25) } 
		.shp25 { opacity: 0.4;fill: url(#grd26) } 
		.shp26 { fill: url(#grd27) } 
		.shp27 { fill: url(#grd28) } 
		.shp28 { fill: url(#grd29) } 
		.shp29 { opacity: 0.2;fill: url(#grd30) } 
		.shp30 { opacity: 0.2;fill: url(#grd31) } 
		.shp31 { opacity: 0.2;fill: url(#grd32) } 
		.shp32 { opacity: 0.2;fill: url(#grd33) } 
		.shp33 { opacity: 0.2;fill: url(#grd34) } 
		.shp34 { fill: url(#grd35) } 
	</style>
	<g id="Folder 1">
		<path id="Path 6" class="shp0" d="M83.92 477.5L47.43 557.1C142.18 625.52 290.33 688.49 467.89 670.5C482.97 668.98 497.38 667.14 511.17 665.02L419.54 477.5L83.92 477.5Z" />
		<path id="Path 7" class="shp1" d="M546.61 478.25C548.8 540.86 459.57 638.89 284.16 645.03C108.74 651.17 21.42 589.33 19.23 526.72C17.04 464.11 63.8 412.6 239.22 406.45C414.64 400.31 544.42 415.63 546.61 478.25Z" />
		<path id="Path 8" class="shp2" d="M506.82 401.27C506.82 463.92 414.94 564.4 270.57 583.15C96.51 605.75 28.69 490.17 28.69 427.52C28.69 364.87 54.73 328.15 230.26 328.15C405.78 328.15 506.82 338.62 506.82 401.27Z" />
		<path id="Path 9" class="shp3" d="M183.64 37.93C168.62 82.98 168.62 124.69 125.23 143.05C88.94 158.4 80.67 166.76 77.98 176.89C77.43 178.87 77.11 180.91 76.85 183.09C75.18 196.44 83.52 214.8 45.14 228.15C6.77 241.5 -6.58 321.58 81.85 334.94C170.29 348.28 145.26 344.95 176.96 341.61C208.66 338.27 248.71 324.92 277.08 329.93C305.44 334.94 420.57 339.94 432.26 339.94C443.94 339.94 509.01 333.27 512.35 291.55C515.68 249.84 447.27 256.51 442.27 223.14C439.36 203.77 443.77 185.53 437.84 168.08L437.84 168.06C433.57 155.46 423.93 143.27 402.22 131.37C350.49 103 337.58 106.22 320.46 44.6C311.98 14.08 281.13 -0.12 250.63 -0.12C221.09 -0.12 191.88 13.2 183.64 37.93Z" />
		<path id="Path 10" class="shp4" d="M201.45 96.95C201.45 96.95 199.84 164.23 149.43 172.25C76.01 183.93 117.24 256.72 77.68 267.36C46.72 275.69 32.7 294.53 32.87 314C43.46 323.83 59.37 331.54 81.85 334.94C170.29 348.28 145.26 344.95 176.96 341.61C208.67 338.27 248.71 324.92 277.08 329.93C305.44 334.94 420.57 339.94 432.26 339.94C440.79 339.94 477.85 336.37 498.48 318.17C484.8 300.42 406.61 300.13 408.06 263.95C409.73 222.38 429.47 182.08 376.36 162.99C304.61 137.21 302.94 78.69 286.25 68.8C280.58 65.43 271.49 63.17 261.11 63.17C240.97 63.17 215.95 71.65 201.45 96.95Z" />
		<path id="Path 11" class="shp5" d="M101.04 350.79C101.04 350.79 105.08 215.25 159.44 198.94C226.19 178.92 209.29 116.35 248.61 123.44C287.92 130.53 309.61 138.88 319.63 187.27C327.31 224.4 403.02 198.75 389.71 257.35C373.02 330.76 463.68 304.01 473.14 332.43C482.59 360.85 101.04 350.79 101.04 350.79Z" />
		<path id="Path 12" class="shp6" d="M437.84 168.06L437.84 168.08C437.84 168.08 433.09 148.89 373.85 123.02C338.06 107.4 323.8 87.98 313.79 52.94C295.31 -11.72 212.84 0.38 194.48 35.42C179.59 63.85 186.14 123.86 142.76 142.21C99.37 160.57 79.35 167.24 77.68 183.93C77.06 190.08 77.36 185.33 77.98 176.89C80.67 166.76 88.94 158.4 125.24 143.05C168.62 124.69 168.62 82.98 183.64 37.93C200.39 -12.33 303.77 -15.47 320.46 44.6C337.58 106.22 350.49 103 402.22 131.37C423.93 143.27 433.57 155.46 437.84 168.06Z" />
		<path id="Path 13" class="shp7" d="M268.73 460.08C243.7 461.75 142.63 527.12 142.63 527.12C156.68 555.78 198.65 571.87 242.04 571.87C285.42 571.87 423.08 532.66 433.09 527.66L438.93 498.46C415.57 498.46 395.55 500.12 395.55 500.12C395.55 500.12 297.71 460.03 270.29 460.03C269.74 460.03 269.22 460.05 268.73 460.08Z" />
		<path id="Path 14" class="shp8" d="M441.43 495.95C439.76 499.29 431.42 510.97 376.36 512.64C321.29 514.31 299.34 512.26 291.26 529.32C276.24 561.03 154.44 551.02 139.42 529.32C124.1 507.2 286.25 444.23 286.25 444.23L441.43 495.95Z" />
		<path id="Path 15" class="shp9" d="M336.95 504.31C336.78 504.35 277.91 512.64 266.23 514.31C261.01 515.05 169.45 504.3 207.83 487.61C222.98 481.02 277.76 457.06 286.18 462.32C294.6 467.59 336.95 504.31 336.95 504.31Z" />
		<path id="Path 16" class="shp10" d="M21.79 545.18C1.76 550.18 -13.26 560.19 18.45 568.54C36.56 573.3 49.23 569.35 59.25 565.4C66.77 562.44 72.79 559.48 78.52 560.19C91.86 561.86 103.55 543.51 103.55 543.51L81.85 516.81C81.85 516.81 41.81 540.17 21.79 545.18Z" />
		<path id="Path 17" class="shp11" d="M438.93 498.46L431.42 527.66C431.42 527.66 482.31 530.16 505.67 528.49C529.03 526.82 524.03 520.15 504 510.14C493.46 504.87 480.64 508.47 462.29 500.12C457.36 497.88 452.44 497.23 448.39 497.23C442.83 497.23 438.93 498.46 438.93 498.46Z" />
		<path id="Path 18" class="shp12" d="M89.36 552.69C87.41 553.98 85.97 553.51 83.96 553.05C80.79 552.31 76.2 551.57 66 557.69C49.32 567.7 15.62 567.75 15.6 567.75C16.5 568.01 17.45 568.27 18.45 568.54C36.56 573.31 49.23 569.35 59.25 565.4C66.77 562.44 72.79 559.48 78.52 560.19C89.29 561.54 98.98 549.83 102.32 545.27C98.01 547.59 92.27 550.75 89.36 552.69Z" />
		<path id="Path 19" class="shp13" d="M205.56 193.77C197.44 197.03 190.91 200.81 188.64 204.79C181.97 216.47 161.94 261.52 168.62 283.21C175.29 304.9 201.99 348.28 178.63 400.01C155.27 451.74 133.58 508.47 173.63 493.45C203.68 482.19 215.87 437.09 251.83 429.39C261.24 427.36 272.31 427.91 285.75 432.31C289.36 433.5 293.13 434.95 297.1 436.72C372.19 470.09 390.54 466.75 375.52 440.06C360.51 413.36 320.46 371.64 325.47 333.27C330.47 294.89 340.48 266.52 338.81 254.84C337.15 243.16 327.77 203.83 315.45 196.44C313.04 194.99 308.95 193.25 303.69 191.54C290.82 187.3 271.02 183.09 252.05 183.09C243.15 183.09 221.31 187.45 205.56 193.77Z" />
		<path id="Path 20" class="shp14" d="M168.06 266.38C168.06 266.38 174.38 297.92 187.81 302.4C197.82 305.73 203.38 359.69 173.9 410.3C173.9 410.3 157.77 282.37 162.78 274.03L167.79 265.69" />
		<path id="Path 21" class="shp15" d="M337.98 259.01C337.98 259.01 331.31 294.06 326.3 297.39C321.29 300.73 317.41 311.69 319.35 325.4C321.29 339.11 326.3 379.15 349.66 400.84L354.67 280.71L337.98 259.01Z" />
		<path id="Path 22" class="shp16" d="M314.62 321.59C314.62 326.65 288.47 330.76 256.22 330.76C223.97 330.76 197.82 326.65 197.82 321.59C197.82 316.52 223.97 312.41 256.22 312.41C288.47 312.41 314.62 316.52 314.62 321.59Z" />
		<path id="Path 23" class="shp17" d="M285.75 432.31C275.01 431.46 263.44 430.33 251.83 429.39C239.08 428.36 209.62 480.94 197.82 480.94C144.43 480.94 196.27 396.44 214.51 339.11C226.19 302.4 166.45 253.26 179.46 223.97C199.49 178.92 192.81 200.61 192.81 200.61C192.81 200.61 206.53 184.04 206.16 183.93C221.91 177.6 243.15 183.09 252.05 183.09C271.02 183.09 305.09 173.02 317.96 177.25C327.45 184.68 326.39 216.75 327.97 228.98C334.64 280.71 304.61 292.39 302.94 339.11C301.27 385.83 354.67 415.86 356.33 437.55C357.3 450.08 316.54 434.78 285.75 432.31Z" />
		<path id="Path 24" class="shp18" d="M286.25 185.6C286.25 194.81 269.57 205.62 254.55 205.62C242.87 205.62 221.18 196.48 221.18 187.27C221.18 178.05 230.22 168.91 253.72 168.91C277.22 168.91 286.25 176.38 286.25 185.6Z" />
		<path id="Path 25" class="shp19" d="M237.45 161.4L239.53 185.6C240.53 194.11 247.18 197.29 253.44 197.29C260.67 197.29 265.39 191.09 266.23 183.93L267.48 161.4L237.45 161.4Z" />
		<path id="Path 26" class="shp20" d="M213.79 64.56C206.1 74.38 201.06 87.15 200.1 101.27C199.97 102.94 199.91 104.64 199.91 106.34C199.91 140.43 223.43 168.08 252.46 168.08C281.5 168.08 305.03 140.43 305.03 106.34C305.03 101.65 304.57 97.08 303.72 92.67C303.72 92.67 303.71 92.62 303.69 92.52C303.66 92.31 303.57 91.9 303.46 91.32C303.36 90.89 303.24 90.35 303.09 89.74C303.04 89.52 302.99 89.3 302.94 89.08C297.43 66.84 281.56 49.77 261.88 45.6C261.88 45.6 261.86 45.6 261.86 45.59C258.82 44.94 255.67 44.6 252.46 44.6C237.15 44.6 223.38 52.29 213.79 64.56Z" />
		<path id="Path 27" class="shp21" d="M238.7 395C191.98 426.71 115.22 498.46 81.85 516.81C81.85 516.81 78.52 540.17 100.21 548.51C100.21 548.51 100.62 548.3 101.42 547.9C116.38 540.29 264.23 465.17 273.74 466.75C283.75 468.42 325.47 505.13 325.47 505.13L395.55 500.12C395.55 500.12 398.4 485.36 391.91 465.25C386.25 447.71 373.47 426.11 345.49 406.68C312.71 383.92 297.82 373.08 283.46 373.08C271.51 373.08 259.93 380.6 238.7 395Z" />
		<path id="Path 28" class="shp22" d="M395.55 500.12L325.47 505.13C325.47 505.13 283.75 468.42 273.74 466.75C264.23 465.17 116.38 540.29 101.43 547.9C101.18 547.75 101.04 547.68 101.04 547.68C101.04 547.68 141.09 515.98 159.44 504.3C177.8 492.62 157.77 489.28 184.47 472.59C211.17 455.91 237.86 425.87 271.24 427.54C299.72 428.96 363.49 447.41 391.91 465.25C398.4 485.36 395.55 500.12 395.55 500.12Z" />
		<path id="Path 29" class="shp23" d="M248.71 104.67L244.54 142.21L256.22 137.21L248.71 104.67Z" />
		<path id="Path 30" class="shp24" d="M224.9 121.33C221.54 121.33 217.78 120.47 214.03 117.87C213.65 117.61 213.56 117.09 213.82 116.71C214.08 116.33 214.6 116.23 214.98 116.5C225.23 123.6 235.62 116.57 235.72 116.5C236.1 116.23 236.62 116.33 236.88 116.71C237.14 117.09 237.05 117.61 236.67 117.87C236.6 117.92 231.56 121.33 224.9 121.33Z" />
		<path id="Path 31" class="shp25" d="M274.96 121.33C271.6 121.33 267.84 120.47 264.09 117.87C263.71 117.61 263.61 117.09 263.88 116.71C264.14 116.33 264.66 116.23 265.04 116.5C275.29 123.6 285.68 116.57 285.78 116.5C286.16 116.23 286.68 116.33 286.94 116.71C287.2 117.09 287.11 117.61 286.73 117.87C286.65 117.92 281.61 121.33 274.96 121.33Z" />
		<path id="Path 32" class="shp26" d="M200.1 101.27C213.9 97.23 224.84 91 233.43 84.15C247.72 93.51 270.45 101.03 303.72 92.67C303.72 92.67 303.71 92.62 303.69 92.52C303.66 92.31 303.57 91.9 303.46 91.32C303.36 90.89 303.24 90.35 303.09 89.74C303.04 89.52 302.99 89.3 302.94 89.08C296.73 64.01 276.85 44.6 252.46 44.6C223.93 44.6 202.16 70.73 200.1 101.27Z" />
		<path id="Path 33" class="shp27" d="M120.23 256.51C71.58 316.96 55.99 379.15 66 390.83C70.61 396.21 194.48 350.79 211.17 349.12C217.42 348.49 223.68 349.27 229.32 350.06C238.72 351.36 246.42 352.66 249.54 347.45C253.38 341.06 254.28 291.94 254.49 270.04C254.51 267.58 251.16 266.85 250.17 269.1C242.49 286.48 226.97 322.02 222.01 323.25C215.34 324.92 121.9 339.94 121.9 339.94L168.62 273.2C168.62 273.2 191.98 214.8 193.65 199.78C193.65 199.78 147.76 222.31 120.23 256.51Z" />
		<path id="Path 34" class="shp28" d="M337.98 267.36L387.2 331.6C387.2 331.6 289.59 325.76 281.05 323.25C276.17 321.82 265.66 286.57 259.67 269.21C258.96 267.17 255.97 267.65 255.91 269.8C255.38 291.6 253.01 341.04 256.86 347.45C259.95 352.6 264.39 351.07 271.26 349.54C275.52 348.59 280.71 347.65 287.09 348.28C303.77 349.95 447.67 383.69 452.28 378.32C462.29 366.64 436.32 317.91 388.87 256.51C360.51 219.8 315.45 196.44 315.45 196.44C317.12 211.46 337.98 267.36 337.98 267.36Z" />
		<path id="Path 35" class="shp29" d="M267.03 468.43C267.03 468.43 294.6 457.58 299.6 459.24C304.61 460.91 318.59 470.72 334.64 477.6C358 487.61 374.69 487.61 386.37 475.93C398.05 464.25 411.4 484.27 411.4 484.27L413.07 505.96C413.07 505.96 339.65 519.31 336.31 519.31C332.97 519.31 311.28 509.3 311.28 509.3L267.03 468.43Z" />
		<path id="Path 36" class="shp30" d="M238.7 395C212.72 412.63 177.47 442.63 145.54 468.96C201.12 429.05 274.03 378.34 284.58 379.15C301.4 380.44 355.3 420.83 378.7 438.94C371.18 428.2 360.53 417.13 345.49 406.68C312.71 383.92 297.82 373.08 283.46 373.08C271.51 373.08 259.93 380.6 238.7 395Z" />
		<path id="Path 37" class="shp31" d="M193.65 199.78C193.65 199.78 147.76 222.31 120.23 256.51C71.58 316.96 60.99 385.83 66 390.83C71.01 395.84 194.48 350.79 211.17 349.12C227.85 347.45 244.54 355.79 249.55 347.45C253.38 341.06 254.28 291.94 254.49 270.04C254.51 267.58 251.16 266.85 250.17 269.1C242.49 286.48 226.97 322.02 222.01 323.25C215.34 324.92 121.9 339.94 121.9 339.94L168.62 273.2C168.62 273.2 191.98 214.8 193.65 199.78Z" />
		<path id="Path 38" fill-rule="evenodd" class="shp32" d="M185.66 227.7C178.31 248.96 168.62 273.2 168.62 273.2L121.97 339.84C111.45 341.25 101.94 342.12 101.04 340.77C94.41 330.83 160.27 248.39 185.66 227.7ZM151.35 335.18C150.97 335.25 138.45 337.5 125.99 339.28C131.07 338.46 140.41 336.96 151.35 335.18ZM151.36 335.17L151.36 335.17C151.35 335.18 151.35 335.18 151.35 335.18C151.35 335.18 151.36 335.17 151.36 335.17Z" />
		<path id="Path 39" fill-rule="evenodd" class="shp33" d="M320.29 215.88C320.29 215.88 320.29 215.88 320.29 215.88C332.63 222.8 421.41 320.75 421.41 327.43C421.41 331.59 401.77 331.79 387.02 331.35L337.98 267.36C337.98 267.36 326.94 237.78 320.29 215.88ZM371.26 330.61C371.92 330.65 372.55 330.69 373.18 330.73C372.24 330.68 371.57 330.63 371.26 330.61Z" />
		<path id="Path 40" class="shp34" d="M438.93 498.46L436.58 507.6C438.58 507.1 440.84 506.53 443.1 505.96C446.44 505.13 455.2 506.38 464.38 507.63C473.55 508.89 483.15 510.14 488.15 509.3C498.16 507.63 509.74 513.15 509.74 513.15C509.74 513.15 509.74 513.15 509.74 513.15C508 512.18 506.08 511.18 504 510.14C493.46 504.87 480.64 508.47 462.29 500.12C457.36 497.88 452.44 497.24 448.39 497.24C442.83 497.24 438.93 498.46 438.93 498.46Z" />
	</g>
</svg>