<svg xmlns="http://www.w3.org/2000/svg" viewBox="0 0 330 540" width="330" height="540">
	<defs>
		<linearGradient id="grd1" gradientUnits="userSpaceOnUse"  x1="25.874" y1="270.037" x2="329.479" y2="270.037">
			<stop offset="0" stop-color="#f05f6f"  />
			<stop offset="1" stop-color="#9f2c69"  />
		</linearGradient>
	</defs>
	<style>
		tspan { white-space:pre }
		.shp0 { fill: url(#grd1) } 
	</style>
	<path id="Path 41" class="shp0" d="M71.18 86.33C71.18 86.33 103.2 106.79 116.88 119.76C118.61 121.41 120.3 123.08 121.96 124.8C37.81 91.67 31.27 159.51 61.21 164.84C88.23 169.64 120.17 137.33 126.89 130.14C130.04 133.72 133.01 137.44 135.77 141.31C141.32 149.08 145.99 157.44 149.65 166.24C155.08 179.29 158.26 193.2 159.6 207.31C74.87 173.6 68.21 241.76 98.23 247.1C121.82 251.29 149.17 227.18 160.21 216.21C160.29 218.17 160.34 220.13 160.36 222.09C160.46 231.66 160.04 241.25 158.92 250.79L158.55 254.37L158.06 257.93L157.06 265.07L155.83 272.17L155.21 275.72L154.49 279.26L153.05 286.33C152.54 288.68 151.96 291.02 151.42 293.36C150.38 298.06 149.13 302.72 147.91 307.38C146.74 312.05 145.3 316.66 144 321.3C143.32 323.58 142.68 325.99 142.04 328.37C141.43 330.77 140.7 333.13 140.19 335.56C138.95 340.97 138 346.46 137.33 351.99C70.9 291.82 40.81 352.6 66.82 368.21C87.72 380.76 122.72 367.32 136.46 361.14C136.38 362.44 136.31 363.74 136.26 365.05C135.86 375.01 136.77 385.05 138.77 394.87C142.77 414.54 152.04 433.07 164.87 448.44C171.32 456.11 178.5 463.14 186.35 469.33C188.47 471.02 190.65 472.65 192.86 474.22C110.88 474.42 126.9 536.79 156.08 532.13C180.16 528.27 198.29 495.46 204.82 481.88C204.87 481.91 204.93 481.94 204.98 481.97C207.21 483.21 326.97 538.95 329.48 540.12L329.48 529.17C328.06 528.54 212.66 475.42 211.12 474.6C225.26 469.31 259.54 454.26 265.56 430.65C273.11 401.07 208.11 378.96 203.96 470.48C203.81 470.38 203.66 470.3 203.52 470.21C199.54 467.73 195.66 465.05 191.95 462.16C184.48 456.45 177.65 449.93 171.51 442.84C159.31 428.61 150.48 411.54 146.48 393.22C144.48 384.07 143.49 374.66 143.73 365.23C143.8 362.51 143.96 359.79 144.18 357.08C154.71 358.31 199.05 362.13 216.41 341.35C235.76 318.19 188.03 271.05 145.18 347.9C145.69 344.28 146.33 340.67 147.09 337.09C147.55 334.76 148.23 332.48 148.78 330.17C149.37 327.86 149.93 325.57 150.6 323.19C151.85 318.48 153.24 313.81 154.36 309.05C155.54 304.31 156.73 299.58 157.73 294.8C158.24 292.41 158.8 290.03 159.28 287.64L160.65 280.44L161.33 276.83L161.91 273.21L163.06 265.96L163.97 258.68L164.43 255.04L164.75 251.37C165.75 241.63 166.06 231.79 165.82 221.97C165.73 218 165.51 214.02 165.15 210.05C177.36 207.55 218.09 197.52 227.94 173.32C239.08 145.97 182.03 116.29 163.26 195.88C161.34 185.09 158.29 174.5 153.93 164.42C150.02 155.35 145.04 146.75 139.21 138.82C134.98 133.07 130.31 127.67 125.32 122.59C132.13 117.08 167.76 86.82 164.73 59.09C161.41 28.67 92.49 30.85 121.21 118.57C120.64 118.03 120.08 117.49 119.51 116.96C105.54 104.08 73.89 83.62 73.89 83.62C73.89 83.62 68.47 18.55 35.94 2.29C32.74 0.69 29.47 -0.04 26.26 -0.04C-3.15 -0.05 -26.61 61.88 71.18 86.33Z" />
</svg>