<svg xmlns="http://www.w3.org/2000/svg" viewBox="0 0 330 299" width="330" height="299">
	<defs>
		<linearGradient id="grd1" gradientUnits="userSpaceOnUse"  x1="328.234" y1="118.984" x2="76.68" y2="231.732">
			<stop offset="0" stop-color="#ff8e6f"  />
			<stop offset="0.002" stop-color="#ff8e6f"  />
			<stop offset="1" stop-color="#d42c69"  />
		</linearGradient>
		<linearGradient id="grd2" gradientUnits="userSpaceOnUse"  x1="227.838" y1="-60.166" x2="-41.365" y2="338.121">
			<stop offset="0" stop-color="#6ee35d"  />
			<stop offset="0.004" stop-color="#6ee35d"  />
			<stop offset="1" stop-color="#2e9eff"  />
		</linearGradient>
		<linearGradient id="grd3" gradientUnits="userSpaceOnUse"  x1="113.699" y1="65.74" x2="125.198" y2="82.31">
			<stop offset="0" stop-color="#f05f6f"  />
			<stop offset="1" stop-color="#9f2c69"  />
		</linearGradient>
		<linearGradient id="grd4" gradientUnits="userSpaceOnUse"  x1="89.062" y1="64.402" x2="104.69" y2="61.342">
			<stop offset="0" stop-color="#f05f6f"  />
			<stop offset="1" stop-color="#9f2c69"  />
		</linearGradient>
		<linearGradient id="grd5" gradientUnits="userSpaceOnUse"  x1="119.118" y1="88.873" x2="114.498" y2="110.812">
			<stop offset="0" stop-color="#f05f6f"  />
			<stop offset="1" stop-color="#9f2c69"  />
		</linearGradient>
		<linearGradient id="grd6" gradientUnits="userSpaceOnUse"  x1="73.035" y1="75.712" x2="85.159" y2="66.655">
			<stop offset="0" stop-color="#f05f6f"  />
			<stop offset="1" stop-color="#9f2c69"  />
		</linearGradient>
		<linearGradient id="grd7" gradientUnits="userSpaceOnUse"  x1="101.421" y1="98.421" x2="88.506" y2="115.29">
			<stop offset="0" stop-color="#f05f6f"  />
			<stop offset="1" stop-color="#9f2c69"  />
		</linearGradient>
		<linearGradient id="grd8" gradientUnits="userSpaceOnUse"  x1="75.552" y1="80.952" x2="106.77" y2="106.67">
			<stop offset="0" stop-color="#079fd7"  />
			<stop offset="1" stop-color="#0074bf"  />
		</linearGradient>
		<linearGradient id="grd9" gradientUnits="userSpaceOnUse"  x1="129.39" y1="174.089" x2="146.32" y2="194.587">
			<stop offset="0" stop-color="#f05f6f"  />
			<stop offset="1" stop-color="#9f2c69"  />
		</linearGradient>
		<linearGradient id="grd10" gradientUnits="userSpaceOnUse"  x1="98.236" y1="175.079" x2="116.969" y2="169.752">
			<stop offset="0" stop-color="#f05f6f"  />
			<stop offset="1" stop-color="#9f2c69"  />
		</linearGradient>
		<linearGradient id="grd11" gradientUnits="userSpaceOnUse"  x1="138.864" y1="202.793" x2="135.272" y2="231.652">
			<stop offset="0" stop-color="#f05f6f"  />
			<stop offset="1" stop-color="#9f2c69"  />
		</linearGradient>
		<linearGradient id="grd12" gradientUnits="userSpaceOnUse"  x1="79.408" y1="191.489" x2="94.39" y2="178.207">
			<stop offset="0" stop-color="#f05f6f"  />
			<stop offset="1" stop-color="#9f2c69"  />
		</linearGradient>
		<linearGradient id="grd13" gradientUnits="userSpaceOnUse"  x1="117.654" y1="216.568" x2="102.909" y2="239.587">
			<stop offset="0" stop-color="#f05f6f"  />
			<stop offset="1" stop-color="#9f2c69"  />
		</linearGradient>
		<linearGradient id="grd14" gradientUnits="userSpaceOnUse"  x1="82.665" y1="197.42" x2="124.911" y2="226.657">
			<stop offset="0" stop-color="#079fd7"  />
			<stop offset="1" stop-color="#0074bf"  />
		</linearGradient>
	</defs>
	<style>
		tspan { white-space:pre }
		.shp0 { fill: url(#grd1) } 
		.shp1 { opacity: 0.6;fill: #ffffff } 
		.shp2 { fill: url(#grd2) } 
		.shp3 { opacity: 0.302;fill: #6f8748 } 
		.shp4 { fill: url(#grd3) } 
		.shp5 { fill: url(#grd4) } 
		.shp6 { fill: url(#grd5) } 
		.shp7 { fill: url(#grd6) } 
		.shp8 { fill: url(#grd7) } 
		.shp9 { fill: url(#grd8) } 
		.shp10 { fill: url(#grd9) } 
		.shp11 { fill: url(#grd10) } 
		.shp12 { fill: url(#grd11) } 
		.shp13 { fill: url(#grd12) } 
		.shp14 { fill: url(#grd13) } 
		.shp15 { fill: url(#grd14) } 
	</style>
	<g id="Folder 1">
		<path id="Path 44" class="shp0" d="M270.09 133.79C261.37 140.8 252.3 147.8 216.04 134.7C172.74 119.05 153.21 129.38 134.64 139.71C119.97 147.87 105.89 156.03 81.17 151.39C25.14 140.89 42.78 224.23 70.09 272.44C97.41 320.64 123.67 291.19 144.78 264.78C163.64 241.2 181.5 244.87 197.44 248.54C214.03 252.36 228.54 256.18 239.96 229.28C258.58 185.38 280.47 187.31 298.23 189.24C311.21 190.65 321.98 192.06 327.64 175.55C331.82 163.33 331.73 133.98 305.02 127.5C299.27 126.11 294.59 125.53 290.67 125.53C280.26 125.53 275.23 129.66 270.09 133.79Z" />
		<path id="Path 46" class="shp1" d="M152.29 257.64L152.68 257.57L152.42 255.99L152.03 256.05C137.03 258.54 124.39 252.38 114.45 237.75C108.08 228.37 104.92 218.32 104.12 215.51C123.11 211 143.38 205.77 163.66 200.28C174.34 225.21 194.96 230.98 210.44 231.4C227.23 231.86 241.79 226.25 241.93 226.19L242.31 226.05L241.72 224.55L241.35 224.7C241.21 224.75 227.03 230.24 210.48 229.8C195.52 229.39 175.61 223.83 165.23 199.85C189.84 193.16 214.43 186.11 236.79 179.52C244.29 199.16 264.1 195.95 264.3 195.91L264.7 195.84L264.42 194.26L264.03 194.33C263.84 194.36 245.39 197.28 238.33 179.07C263.41 171.66 285.57 164.87 301.62 159.87C306.84 175.95 327.42 176.35 327.63 176.35L328.03 176.35L328.05 174.75L327.65 174.74C327.45 174.74 308.02 174.34 303.16 159.4C318.49 154.62 327.88 151.6 328.29 151.47L328.67 151.35L328.16 149.82L327.78 149.95C326.48 150.36 305.23 157.19 274.35 166.6C271.68 156.69 272.6 148.43 277.09 142.04C285.74 129.73 304.88 128.32 305.07 128.31L305.47 128.28L305.36 126.68L304.96 126.7C304.76 126.72 284.85 128.2 275.78 141.11C273.27 144.67 271.79 148.81 271.37 153.4C270.99 157.55 271.49 162.15 272.82 167.07C258.16 171.53 241.41 176.55 223.65 181.73C212.95 184.84 201.42 188.15 189.44 191.51C183.06 175.08 182.84 161.73 188.82 151.83C197.35 137.7 215.94 135.52 216.13 135.5L216.53 135.45L216.36 133.86L215.96 133.9C215.76 133.92 196.43 136.13 187.45 151C185 155.05 183.52 159.71 183.05 164.83C182.33 172.67 183.96 181.79 187.89 191.95C166.81 197.85 144.42 203.89 122.74 209.31C119.1 192.37 117.43 168.64 129.46 150.07C136.73 138.85 145.72 134.78 145.81 134.74L146.18 134.58L145.53 133.1L145.17 133.27C145.07 133.31 135.66 137.58 128.14 149.16C122.95 157.15 119.81 166.74 118.81 177.68C117.92 187.48 118.72 198.25 121.19 209.7C99.02 215.23 77.65 220.1 59.28 223.5C58.14 195.88 67.14 178.26 74.96 168.33C83.5 157.47 92.48 153.17 92.57 153.13L92.94 152.96L92.26 151.51L91.89 151.68C91.8 151.72 82.54 156.1 73.73 167.3C67.58 175.09 59.87 188.68 58 209.15C57.57 213.85 57.47 218.77 57.69 223.79C55.24 224.23 52.84 224.66 50.51 225.05L50.11 225.12L50.38 226.7L50.77 226.63C65.88 224.11 83.57 220.37 102.56 215.88C103.37 218.71 106.61 229.07 113.11 238.64C123.29 253.63 136.84 260.2 152.29 257.64Z" />
		<path id="Path 48" class="shp2" d="M207.91 1.23C161.31 13.56 202.19 39.51 133.11 49.94C51.63 62.22 76.74 111.4 22.47 128.86C6.57 133.97 0.06 143.16 0 154.33L0 154.66C0.15 181.6 37.31 219.88 70.39 240.56C117.36 269.93 126.42 231.53 132.41 198.26C143.33 137.6 204.63 178.75 199.18 121.7C191.32 39.51 257.54 73.45 250.68 32.69C248.79 21.45 237.61 0.03 216.7 0.03C213.94 0.03 211.01 0.41 207.91 1.23Z" />
		<path id="Path 50" class="shp3" d="M135.61 188.4L135.93 188.15L134.94 186.88L134.62 187.13C122.63 196.46 108.58 197.06 92.87 188.94C82.8 183.73 75.23 176.39 73.19 174.3C87.74 161.29 103.07 147.04 118.28 132.55C139.56 149.38 160.43 144.63 174.24 137.63C189.22 130.03 199.35 118.17 199.45 118.05L199.71 117.74L198.48 116.71L198.23 117.01C198.13 117.13 188.28 128.71 173.52 136.2C160.16 142.97 140 147.56 119.46 131.42C137.92 113.82 156.18 95.91 172.7 79.46C188.65 93.15 204.54 80.89 204.7 80.77L205.01 80.52L204.02 79.26L203.7 79.51C203.55 79.63 188.72 90.99 173.84 78.33C192.36 59.87 208.61 43.34 220.34 31.31C232.59 42.96 250.87 33.5 251.06 33.4L251.42 33.21L250.66 31.8L250.31 31.98C250.13 32.08 232.86 40.98 221.47 30.16C232.68 18.65 239.49 11.53 239.79 11.21L240.06 10.92L238.89 9.82L238.62 10.12C237.67 11.1 222.24 27.23 199.57 50.21C192.51 42.77 189.37 35.07 190.28 27.31C192.02 12.37 208.17 2.01 208.34 1.91L208.68 1.69L207.82 0.33L207.48 0.55C207.31 0.66 190.51 11.45 188.68 27.12C188.18 31.44 188.84 35.78 190.66 40.02C192.3 43.85 194.93 47.66 198.44 51.35C187.68 62.26 175.35 74.65 162.19 87.66C154.27 95.5 145.71 103.9 136.78 112.56C123.34 101.15 116.79 89.51 117.33 77.97C118.1 61.47 133.41 50.7 133.56 50.59L133.89 50.37L132.98 49.04L132.65 49.27C132.49 49.38 116.54 60.53 115.73 77.89C115.5 82.62 116.42 87.42 118.45 92.15C121.55 99.38 127.33 106.62 135.62 113.68C119.9 128.91 103.09 144.88 86.61 159.98C75.34 146.82 62.57 126.75 64.3 104.7C65.35 91.36 71.31 83.5 71.37 83.42L71.62 83.1L70.35 82.12L70.1 82.44C70.04 82.52 63.8 90.75 62.7 104.52C61.95 114.01 63.76 123.95 68.09 134.04C71.97 143.09 77.81 152.17 85.43 161.06C68.57 176.48 52.1 190.95 37.57 202.68C23.41 178.94 22.94 159.16 25.07 146.7C27.41 133.09 33.26 125.03 33.32 124.95L33.56 124.63L32.27 123.68L32.03 124C31.97 124.08 25.92 132.34 23.5 146.39C21.81 156.17 21.51 171.79 29.61 190.67C31.47 195.01 33.73 199.39 36.31 203.7C34.37 205.25 32.46 206.77 30.59 208.23L30.28 208.47L31.26 209.74L31.58 209.49C43.66 200.07 57.43 188.36 71.99 175.37C74.05 177.47 81.84 185.03 92.11 190.35C108.2 198.68 123.24 198.01 135.61 188.4Z" />
		<path id="Path 52" class="shp4" d="M103.36 76.75C102.28 78.02 101.72 79.66 101.8 81.34L101.8 81.39C108.66 83.16 127.28 86.98 136.49 78.98C143.37 73 138.64 61.59 127.76 61.59C121.38 61.59 112.88 65.51 103.36 76.75Z" />
		<path id="Path 53" class="shp5" d="M90.6 82.38C90.62 82.39 90.63 82.4 90.65 82.4C92.01 83.05 93.64 82.64 94.54 81.43C99.48 74.75 108.06 61.13 104.79 50.63C103.46 46.37 99.82 44.14 95.94 44.14C86.98 44.14 76.74 56.03 90.6 82.38Z" />
		<path id="Path 54" class="shp6" d="M101.47 88.01C101.46 88.02 101.44 88.03 101.43 88.04C100.3 89.05 100.04 90.71 100.81 92.01C105.02 99.16 114.22 112.37 125.16 113.46C132.27 114.16 136.91 107.39 134.99 100.61C133.15 94.17 125.37 87.72 108.1 87.72C106.03 87.72 103.82 87.81 101.47 88.01Z" />
		<path id="Path 55" class="shp7" d="M81.41 90.78L81.47 90.78C82.98 90.77 84.27 89.69 84.55 88.21C86.11 80.06 87.93 64.06 80.44 56.02C78.53 53.98 76.15 53.04 73.78 53.04C63.63 53.04 53.62 70.17 81.41 90.78Z" />
		<path id="Path 56" class="shp8" d="M87.38 96.15C88.1 104.42 90.7 120.3 100.1 125.99C112.72 133.63 131.46 101.61 89.74 92.83C89.69 92.82 89.64 92.81 89.58 92.81C88.73 92.81 87.18 93.96 87.38 96.15Z" />
		<path id="Path 57" class="shp9" d="M94.15 67.27C94.21 69.54 93.98 71.84 93.57 74.09C93.15 76.33 92.54 78.54 91.67 80.65C90.81 82.75 89.71 84.75 88.36 86.56C87.16 88.2 85.79 89.75 84.24 91.04C82.45 92.29 80.68 93.55 78.92 94.84C79.4 94.01 79.83 93.17 80.15 92.27C80.5 91.3 80.77 90.29 80.93 89.27C81.23 87.23 81.13 85.15 80.72 83.16C80.3 81.17 79.63 79.24 78.63 77.46L78.25 77.68C79.14 79.42 79.74 81.35 80.06 83.28C80.38 85.23 80.39 87.21 80.03 89.12C79.84 90.07 79.56 91 79.2 91.9C78.84 92.8 78.36 93.64 77.83 94.45C76.77 96 75.44 97.35 73.95 98.5C73.7 98.69 73.44 98.88 73.19 99.07C70.96 100.76 68.75 102.49 66.53 104.21L59.98 109.48L61.1 110.82L67.54 105.45C69.72 103.71 71.88 101.95 74.08 100.22C74.77 99.68 75.46 99.15 76.16 98.61C77.66 97.84 79.29 97.27 80.89 96.75C82.73 96.16 84.65 95.77 86.58 95.83C88.5 95.87 90.43 96.32 92.13 97.24C93.83 98.16 95.36 99.48 96.42 101.09L96.8 100.88C95.74 99.11 94.22 97.7 92.46 96.66C90.7 95.62 88.67 95.04 86.62 94.92C84.57 94.78 82.51 95.11 80.55 95.66C80.25 95.75 79.94 95.85 79.64 95.95C81.31 94.69 82.98 93.45 84.67 92.23C86.95 91 89.5 90.16 92.07 89.76C92.74 89.63 93.43 89.58 94.11 89.51C94.79 89.48 95.48 89.42 96.17 89.44C97.54 89.45 98.92 89.55 100.28 89.77C103.02 90.18 105.7 90.96 108.27 92.01C110.84 93.06 113.34 94.35 115.62 95.92L115.89 95.57C113.59 93.9 111.12 92.54 108.53 91.39C105.95 90.25 103.23 89.38 100.43 88.88C99.03 88.61 97.61 88.46 96.18 88.42C95.47 88.38 94.76 88.42 94.04 88.43C93.33 88.49 92.61 88.52 91.9 88.64C90.83 88.77 89.79 89 88.77 89.31C92.92 86.4 97.13 83.57 101.45 80.93C102.64 80.2 103.85 79.5 105.04 78.78C106.26 78.09 107.46 77.38 108.69 76.72C111.13 75.37 113.62 74.08 116.16 72.98L115.96 72.47C113.34 73.54 110.84 74.79 108.35 76.1C107.11 76.74 105.89 77.43 104.66 78.1C103.44 78.8 102.22 79.49 101.01 80.2C96.84 82.65 92.76 85.27 88.75 87.97C88.93 87.73 89.11 87.48 89.29 87.22C90.63 85.29 91.7 83.17 92.51 80.98C93.33 78.78 93.89 76.5 94.24 74.2C94.58 71.89 94.73 69.57 94.58 67.23L94.15 67.27Z" />
		<path id="Path 58" class="shp10" d="M117.41 189.14C116.18 190.88 115.65 193.01 115.93 195.12L115.94 195.18C124.81 196.7 148.78 199.56 159.59 188.44C167.34 180.48 161.01 167.3 148.28 167.3C139.99 167.3 129 172.89 117.41 189.14Z" />
		<path id="Path 59" class="shp11" d="M101.87 197.63C101.89 197.64 101.91 197.65 101.93 197.65C103.72 198.32 105.75 197.64 106.75 196C112.29 187.04 121.7 168.88 116.45 155.94C114.47 151.07 110.16 148.61 105.62 148.61C93.99 148.61 80.88 164.75 101.87 197.63Z" />
		<path id="Path 60" class="shp12" d="M116.22 203.6C116.2 203.62 116.19 203.63 116.17 203.65C114.85 205.04 114.7 207.17 115.81 208.73C121.9 217.33 134.95 233.08 148.91 233.29C157.35 233.42 162.39 225.6 160.53 217.77C158.68 210.01 150.02 202.25 131.11 202.25C126.71 202.24 121.77 202.66 116.22 203.6Z" />
		<path id="Path 61" class="shp13" d="M91.13 209.23C91.15 209.23 91.17 209.23 91.19 209.23C93.11 209.06 94.63 207.56 94.83 205.65C95.93 195.17 96.54 174.73 86.2 165.35C83.85 163.21 81.11 162.24 78.41 162.24C65.17 162.24 52.84 185.53 91.13 209.23Z" />
		<path id="Path 62" class="shp14" d="M99.25 215.4C101.04 225.79 106.02 245.61 118.52 251.82C135.3 260.15 155.62 217.63 101.89 210.95C101.85 210.94 101.81 210.94 101.77 210.94C100.71 210.94 98.75 212.56 99.25 215.4Z" />
		<path id="Path 63" class="shp15" d="M104.75 178.12C105.07 180.99 105.03 183.93 104.75 186.82C104.46 189.71 103.91 192.57 103.03 195.32C102.17 198.08 100.99 200.73 99.47 203.16C98.12 205.37 96.56 207.46 94.74 209.27C92.61 211.04 90.5 212.83 88.4 214.64C88.92 213.54 89.38 212.42 89.69 211.26C90.03 209.99 90.26 208.69 90.35 207.38C90.52 204.77 90.17 202.15 89.44 199.67C88.7 197.19 87.64 194.83 86.19 192.67L85.73 192.99C87.04 195.1 88 197.48 88.62 199.89C89.23 202.32 89.46 204.83 89.21 207.28C89.07 208.51 88.81 209.72 88.44 210.89C88.08 212.06 87.56 213.18 86.98 214.26C85.8 216.33 84.27 218.19 82.5 219.81C82.2 220.07 81.9 220.34 81.6 220.6C78.95 222.98 76.35 225.41 73.72 227.81L65.98 235.18L67.55 236.76L75.12 229.29C77.69 226.85 80.25 224.38 82.84 221.96C83.66 221.21 84.49 220.46 85.31 219.71C87.13 218.57 89.13 217.68 91.1 216.85C93.37 215.91 95.76 215.21 98.2 215.08C100.64 214.92 103.13 215.3 105.38 216.28C107.63 217.26 109.71 218.77 111.22 220.69L111.68 220.38C110.15 218.26 108.07 216.64 105.74 215.5C103.4 214.37 100.76 213.86 98.16 213.93C95.54 213.97 92.98 214.6 90.56 215.51C90.18 215.65 89.81 215.81 89.44 215.97C91.41 214.21 93.39 212.45 95.4 210.72C98.16 208.93 101.29 207.6 104.51 206.82C105.35 206.58 106.21 206.45 107.06 206.28C107.93 206.17 108.79 206.03 109.66 205.98C111.4 205.84 113.16 205.82 114.9 205.95C118.41 206.19 121.88 206.89 125.25 207.95C128.62 209 131.92 210.37 134.98 212.12L135.27 211.64C132.19 209.77 128.91 208.31 125.52 207.13C122.13 205.97 118.6 205.15 115 204.81C113.2 204.62 111.39 204.58 109.57 204.68C108.67 204.71 107.76 204.83 106.86 204.92C105.96 205.07 105.06 205.19 104.18 205.41C102.84 205.7 101.54 206.1 100.29 206.59C105.23 202.47 110.26 198.45 115.45 194.64C116.88 193.59 118.32 192.57 119.76 191.54C121.23 190.54 122.67 189.51 124.16 188.54C127.1 186.58 130.12 184.68 133.22 183.02L132.91 182.39C129.71 184.02 126.67 185.87 123.67 187.79C122.16 188.74 120.69 189.74 119.2 190.72C117.74 191.74 116.26 192.73 114.81 193.76C109.79 197.31 104.91 201.06 100.11 204.9C100.32 204.57 100.52 204.24 100.71 203.9C102.21 201.31 103.34 198.51 104.14 195.65C104.94 192.78 105.4 189.84 105.6 186.89C105.78 183.93 105.73 180.98 105.3 178.03L104.75 178.12Z" />
	</g>
</svg>